<svg xmlns:xlink="http://www.w3.org/1999/xlink" xmlns="http://www.w3.org/2000/svg" id="137607370" viewBox="0 0 384.6499938964844 57.18954248366013" height="57.18954248366013" width="384.6499938964844" style="width: 384.65px; height: 57.1895px; position: absolute; top: 50%; left: 50%; transform: translate(-50%, -50%) scale(0.929416); z-index: 0; cursor: pointer;"><defs id="SvgjsDefs1146"></defs><g id="SvgjsG1147" featurekey="symbolFeature-0" transform="matrix(0.058172661889829246,0,0,0.058172661889829246,10.970913669055085,-0.029086330944914623)" fill="#FCFCFC"><g xmlns="http://www.w3.org/2000/svg" fill="#FCFCFC"><path d="M534,247.1c11.2-11.2,17.4-26.1,17.4-42c0-32.8-26.7-59.4-59.4-59.4c-32.7,0-59.4,26.7-59.4,59.4c0,15.9,6.2,30.8,17.4,42   L652.8,450l-42,42L408,289.1c-21.5-21.5-34.8-51.3-34.8-84.1v0c0-65.6,53.2-118.8,118.8-118.8c65.6,0,118.8,53.2,118.8,118.8   c0,32.8-13.3,62.5-34.8,84L534,247.1z" fill="#FCFCFC"></path><path d="M534,247.1l8.1,8.1c13.4-13.3,20.8-31.3,20.8-50.2c0-39.1-31.8-70.9-70.9-70.9c-39.1,0-70.8,31.8-70.9,70.9v0   c0,18.9,7.4,36.8,20.8,50.2L636.6,450l-25.7,25.7L416.1,281c-19.5-19.5-31.4-46.3-31.4-75.9c0-3-1.2-6-3.4-8.1s-5.1-3.4-8.1-3.4   c-3,0-6,1.2-8.1,3.4s-3.4,5.1-3.4,8.1v0c0,3,1.2,6,3.4,8.1s5.1,3.4,8.1,3.4c3,0,6-1.2,8.1-3.4s3.4-5.1,3.4-8.1   c0.1-59.3,48.1-107.2,107.3-107.3c59.3,0.1,107.2,48.1,107.3,107.3c0,29.7-12,56.4-31.4,75.9l8.1,8.1l8.1-8.1l-42-42L534,247.1   l8.1,8.1L534,247.1l-8.1,8.1l42,42c2.1,2.1,5.1,3.4,8.1,3.4c3,0,6-1.2,8.1-3.4c23.6-23.6,38.2-56.2,38.2-92.2   c0-72-58.3-130.3-130.3-130.3c-72,0-130.3,58.3-130.3,130.3c0,3,1.2,6,3.4,8.1s5.1,3.4,8.1,3.4c3,0,6-1.2,8.1-3.4s3.4-5.1,3.4-8.1   v0c0-3-1.2-6-3.4-8.1s-5.1-3.4-8.1-3.4c-3,0-6,1.2-8.1,3.4s-3.4,5.1-3.4,8.1c0,35.9,14.6,68.6,38.2,92.2l202.9,202.8   c4.5,4.5,11.8,4.5,16.3,0l42-42c2.1-2.1,3.4-5.1,3.4-8.1c0-3-1.2-6-3.4-8.1L458.1,239c-9.1-9.1-14-21-14.1-33.9v0   c0-26.4,21.5-47.9,47.9-47.9c26.4,0,47.9,21.5,47.9,47.9c0,12.9-4.9,24.8-14,33.9c-2.2,2.2-3.4,5.1-3.4,8.1c0,3.1,1.2,6,3.4,8.1   L534,247.1z" fill="#FCFCFC"></path><path d="M736.8,534c11.2,11.2,26.1,17.4,42,17.4c32.7,0,59.4-26.7,59.4-59.4c0-32.8-26.6-59.4-59.3-59.4v0   c-15.9,0-30.8,6.2-42,17.4L534,652.8l-42-42L694.9,408c21.5-21.5,51.2-34.8,84-34.8l0,0c65.6,0,118.8,53.2,118.8,118.9   s-53.2,118.8-118.8,118.8c-32.8,0-62.5-13.3-84-34.8L736.8,534z" fill="#FCFCFC"></path><path d="M736.8,534l-8.1,8.1c13.3,13.4,31.3,20.8,50.2,20.8c39.1,0,70.9-31.8,70.9-70.9c0-39.1-31.7-70.9-70.8-70.9   c-3.1,0-6,1.2-8.1,3.4c-2.2,2.2-3.4,5.1-3.4,8.1v0h11.5v-11.5c-18.9,0-36.8,7.4-50.2,20.7l0,0L534,636.6l-25.7-25.7L703,416.1   c19.5-19.4,46.2-31.4,75.9-31.4c5.3,0,10-3.7,11.2-8.9c1.2-5.2-1.3-10.6-6.1-12.9l0,0l-5.1,10.3v11.5   c59.3,0.1,107.2,48.1,107.3,107.4c-0.1,59.3-48.1,107.2-107.3,107.3c-29.7,0-56.4-12-75.9-31.4l-8.1,8.1l8.1,8.1l42-42L736.8,534   l-8.1,8.1L736.8,534l-8.1-8.1l-42,42c-4.5,4.5-4.5,11.8,0,16.3c23.5,23.6,56.2,38.2,92.2,38.2c72,0,130.3-58.3,130.3-130.3   c0-72-58.3-130.4-130.3-130.4c-5.3,0-10,3.7-11.2,8.9c-1.2,5.2,1.3,10.6,6.1,12.9l0,0l5.1-10.3v-11.5c-36,0-68.6,14.6-92.2,38.2   L483.9,602.7c-2.1,2.1-3.4,5.1-3.4,8.1c0,3,1.2,6,3.4,8.1l42,42c4.5,4.5,11.8,4.5,16.3,0L745,458.1l0,0c9.2-9.1,21-14,33.9-14   c3,0,6-1.2,8.1-3.4s3.4-5.1,3.4-8.1v0h-11.5l0,11.5c26.4,0,47.9,21.5,47.8,47.9c0,26.4-21.5,47.9-47.9,47.9   c-12.9,0-24.8-4.9-33.9-14c-2.2-2.2-5.1-3.4-8.1-3.4c-3.1,0-6,1.2-8.1,3.4L736.8,534z" fill="#FCFCFC"></path><path d="M247.1,450c-11.3-11.2-26.1-17.4-42-17.4c-32.8,0-59.4,26.7-59.4,59.4c0,32.8,26.6,59.4,59.4,59.5v0   c15.9,0,30.8-6.2,42-17.4L450,331.2l42,42L289.1,576c-21.5,21.5-51.3,34.8-84.1,34.8l0,0c-65.7,0-118.8-53.2-118.8-118.9   c0-65.6,53.2-118.8,118.8-118.8c32.8,0,62.5,13.3,84,34.8L247.1,450z" fill="#FCFCFC"></path><path d="M247.1,450l8.1-8.1c-13.3-13.4-31.3-20.8-50.2-20.8c-39.1,0-70.9,31.8-70.9,70.9c0,39.1,31.7,70.9,70.9,71   c3.1,0,6-1.2,8.1-3.4c2.2-2.2,3.4-5.1,3.4-8.1v0h-11.5v11.5c18.9,0,36.8-7.4,50.2-20.8l0,0L450,347.4l25.7,25.7L281,567.9l0,0   c-19.5,19.4-46.3,31.4-75.9,31.5c-5.1,0-9.5,3.3-11,8.1c-1.5,4.8,0.4,10.1,4.6,12.9l0,0l6.4-9.5v-11.5   C145.8,599.2,97.9,551.3,97.8,492c0.1-59.3,48-107.2,107.3-107.3c29.7,0,56.4,12,75.9,31.4l8.1-8.1l-8.1-8.1l-42,42L247.1,450   l8.1-8.1L247.1,450l8.1,8.1l42-42c2.2-2.2,3.4-5.1,3.4-8.1c0-3.1-1.2-6-3.4-8.1c-23.6-23.5-56.2-38.2-92.2-38.1   c-72,0-130.3,58.3-130.3,130.3c0,72,58.3,130.4,130.3,130.4c5.1,0,9.5-3.3,11-8.1c1.5-4.8-0.4-10.1-4.6-12.9l0,0l-6.4,9.5v11.5   c35.9,0,68.6-14.6,92.2-38.2l0,0l202.9-202.8c4.5-4.5,4.5-11.8,0-16.3l-42-42c-4.5-4.5-11.8-4.5-16.3,0L239,525.9l0,0   c-9.2,9.1-21,14-33.9,14.1c-3,0-6,1.2-8.1,3.4s-3.4,5.1-3.4,8.1v0h11.5l0-11.5c-26.4,0-47.9-21.5-47.9-48   c0-26.4,21.5-47.8,47.9-47.9c12.9,0,24.7,4.9,33.9,14c4.5,4.5,11.8,4.5,16.3,0L247.1,450z" fill="#FCFCFC"></path><path d="M778.9,298.9h-11.5v0L778.9,298.9v-11.5c-49.3,0-96,17.5-133,49.3l7.5,8.7l8.1-8.1l-14.7-14.7l-8.1,8.1l8.7,7.5   c31.8-37,49.2-83.8,49.2-133.1l0,0C696.6,92.3,604.9,0.5,492,0.5c-112.9,0-204.6,91.8-204.6,204.6c0,49.3,17.6,96,49.3,133l8.7-7.5   l-8.1-8.1l-14.7,14.7l8.1,8.1l7.5-8.7c-37-31.8-83.9-49.2-133.2-49.2C92.3,287.4,0.5,379.2,0.5,492c0,112.9,91.8,204.6,204.6,204.7   c3,0,6-1.2,8.1-3.4s3.4-5.1,3.4-8.1v0h-11.5v11.5c49.3,0,96-17.5,133-49.3l-7.5-8.7l-8.1,8.1l14.7,14.7l8.1-8.1l-8.7-7.5   c-31.8,37-49.2,83.9-49.2,133.1c0,112.8,91.8,204.6,204.6,204.6c112.9,0,204.6-91.8,204.6-204.6c0-3-1.2-6-3.4-8.1   s-5.1-3.4-8.1-3.4h0v11.5h11.5c0-49.3-17.5-96-49.3-133l-8.7,7.5l8.1,8.1l14.7-14.7l-8.1-8.1l-7.5,8.7   c37,31.9,83.9,49.2,133.2,49.2l0,0c112.8,0,204.6-91.8,204.6-204.6c0-112.9-91.8-204.6-204.6-204.7c-3,0-6,1.2-8.1,3.4   s-3.4,5.1-3.4,8.1H778.9v11.5C879,310.6,960.3,391.9,960.5,492c-0.2,100.1-81.5,181.4-181.6,181.6l0,0   c-43.9,0-85.2-15.4-118.2-43.7c-4.6-3.9-11.4-3.7-15.6,0.6l-14.7,14.7c-4.2,4.2-4.5,11.1-0.6,15.6c28.3,33,43.8,74.2,43.8,118   c0,3,1.2,6,3.4,8.1s5.1,3.4,8.1,3.4h0v-11.5h-11.5C673.4,879,592.1,960.3,492,960.5c-100.1-0.2-181.5-81.5-181.6-181.6   c0-43.9,15.4-85.2,43.7-118.2c3.9-4.6,3.7-11.4-0.6-15.6l-14.7-14.7c-4.2-4.2-11.1-4.5-15.6-0.6c-33,28.3-74.2,43.8-118,43.8   c-3,0-6,1.2-8.1,3.4s-3.4,5.1-3.4,8.1v0h11.5v-11.5C105,673.4,23.7,592.1,23.5,492c0.2-100.1,81.5-181.4,181.6-181.6   c43.9,0,85.2,15.4,118.2,43.7c4.6,3.9,11.4,3.6,15.6-0.6l14.7-14.7c4.2-4.2,4.5-11.1,0.6-15.6c-28.3-32.9-43.8-74.2-43.8-118   C310.6,105,391.9,23.7,492,23.5c100.1,0.2,181.4,81.5,181.6,181.6l0,0c0,43.9-15.4,85.3-43.6,118.2c-3.9,4.6-3.7,11.4,0.6,15.6   l14.7,14.7c4.2,4.2,11.1,4.5,15.6,0.6c33-28.3,74.2-43.8,118-43.8c3,0,6-1.2,8.1-3.4s3.4-5.1,3.4-8.1v0H778.9v11.5V298.9z" fill="#FCFCFC"></path><path d="M450,736.8c-11.2,11.2-17.4,26.1-17.4,42c0,32.7,26.7,59.4,59.4,59.4c32.7,0,59.4-26.6,59.4-59.4h0   c0-15.9-6.2-30.8-17.4-42L331.1,534l42-42L576,694.9c21.5,21.5,34.8,51.2,34.8,84l0,0c0,65.6-53.2,118.8-118.8,118.8   c-65.7,0-118.8-53.2-118.8-118.8c0-32.8,13.3-62.5,34.8-84L450,736.8z" fill="#FCFCFC"></path><path d="M450,736.8l-8.1-8.1c-13.3,13.3-20.8,31.3-20.7,50.1c0,39.1,31.8,70.9,70.9,70.9c39.1,0,70.9-31.7,70.9-70.9   c0-3.1-1.2-6-3.4-8.1c-2.2-2.2-5.1-3.4-8.1-3.4h0v11.5h11.5c0-18.9-7.4-36.8-20.7-50.2l0,0L347.4,534l25.7-25.8L567.8,703   c19.5,19.5,31.5,46.2,31.5,75.9c0,5.4,3.7,10,8.9,11.2c5.2,1.2,10.6-1.4,12.9-6.2l0,0l-10.4-5h-11.5   c-0.1,59.3-48.1,107.2-107.3,107.3c-59.3-0.1-107.2-48.1-107.3-107.3c0-29.7,12-56.4,31.4-75.9l-8.1-8.1l-8.1,8.1l42,42L450,736.8   l-8.1-8.1L450,736.8l8.1-8.1l-42-42c-4.5-4.5-11.8-4.5-16.3,0c-23.6,23.5-38.2,56.2-38.2,92.2c0,72,58.3,130.3,130.3,130.3   c72,0,130.3-58.3,130.3-130.3c0-5.4-3.7-10-8.9-11.2c-5.2-1.2-10.6,1.4-12.9,6.2l0,0l10.4,5h11.5c0-36-14.6-68.6-38.2-92.2   L381.3,483.8c-2.2-2.2-5.1-3.4-8.1-3.4c-3.1,0-6,1.2-8.1,3.4l-42,42c-4.5,4.5-4.5,11.8,0,16.3L525.9,745l0,0   c9.1,9.2,14,21.1,14.1,33.9c0,3,1.2,6,3.4,8.1s5.1,3.4,8.1,3.4h0v-11.5l-11.5,0c0,26.4-21.5,47.8-47.9,47.9   c-26.4,0-47.9-21.5-47.9-47.9c0-12.9,4.9-24.8,14-33.9c4.5-4.5,4.5-11.8,0-16.3L450,736.8z" fill="#FCFCFC"></path><path d="M491.9,610.8l8.1-8.1L389.3,492l102.6-102.5L594.5,492L483.8,602.7L491.9,610.8l8.1-8.1L491.9,610.8l8.1,8.1l118.8-118.8   c2.1-2.1,3.4-5.1,3.4-8.1c0-3-1.2-6-3.4-8.1L500,365c-4.5-4.5-11.8-4.5-16.3,0L364.9,483.8c-4.5,4.5-4.5,11.8,0,16.3L483.8,619   c2.1,2.1,5.1,3.4,8.1,3.4c3,0,6-1.2,8.1-3.4L491.9,610.8z" fill="#FCFCFC"></path></g></g><g id="SvgjsG1148" featurekey="textGroupContainer" transform="matrix(1,0,0,1,77,11)" fill="#FFFFFF"><rect xmlns="http://www.w3.org/2000/svg" y="0" x="0" height="1" width="1" opacity="0" fill="#FFFFFF"></rect><rect xmlns="http://www.w3.org/2000/svg" y="33.875" x="0" width="29.5" height="2" fill="#FFFFFF"></rect><rect xmlns="http://www.w3.org/2000/svg" y="33.875" x="278.15" width="29.5" height="2" fill="#FFFFFF"></rect></g><g id="SvgjsG1149" featurekey="vMvB0T-0" transform="matrix(1.3953985957603379,0,0,1.3953985957603379,82.88368110675728,-1.7211267903848944)" fill="#FFFFFF"><path d="M0.8 20 l0 -15.6 l6.88 0 c1.96 0 3.48 0.5 4.54 1.5 c1.06 1.02 1.58 2.28 1.58 3.74 c0 1.54 -0.52 2.82 -1.58 3.82 c-0.34 0.32 -0.72 0.58 -1.14 0.8 l3.12 5.74 l-3.78 0 l-2.74 -5.02 l-2.88 0 l0 5.02 l-4 0 z M4.8 11.78 l2.66 0 c1.54 0 2.3 -0.7 2.3 -2.12 c0 -0.6 -0.18 -1.08 -0.56 -1.48 s-0.96 -0.58 -1.74 -0.58 l-2.66 0 l0 4.18 z M15.8 20 l0 -15.6 l4 0 l0 15.6 l-4 0 z M28.040000000000003 20.3 c-1.94 0 -3.52 -0.42 -4.76 -1.28 s-1.86 -2.02 -1.86 -3.52 l0 -0.18 l-0.02 -0.8 l3.92 0 l0 0.9 c0 0.34 0.24 0.66 0.7 0.96 s1.1 0.46 1.94 0.46 c0.7 0 1.2 -0.1 1.52 -0.28 c0.3 -0.18 0.46 -0.42 0.46 -0.68 c0 -0.32 -0.2 -0.6 -0.58 -0.84 c-0.4 -0.24 -1.1 -0.52 -2.08 -0.86 c-0.62 -0.22 -1.14 -0.4 -1.56 -0.56 s-0.92 -0.4 -1.5 -0.72 c-0.58 -0.3 -1.06 -0.64 -1.4 -0.98 s-0.64 -0.76 -0.9 -1.28 s-0.38 -1.08 -0.38 -1.7 c0 -1.46 0.56 -2.64 1.7 -3.52 s2.6 -1.32 4.4 -1.32 c1.86 0 3.38 0.46 4.58 1.38 s1.8 2.14 1.8 3.66 l0 0.98 l-3.9 0 l0 -0.9 c0 -0.42 -0.2 -0.82 -0.62 -1.16 s-1.02 -0.5 -1.78 -0.5 c-0.62 0 -1.1 0.1 -1.42 0.3 c-0.32 0.22 -0.48 0.46 -0.48 0.76 s0.18 0.54 0.54 0.74 c0.36 0.22 1.04 0.5 2.04 0.84 l1.02 0.36 l1.08 0.44 c0.46 0.22 0.84 0.4 1.12 0.58 s0.6 0.42 0.98 0.72 s0.66 0.62 0.88 0.92 c0.2 0.3 0.38 0.68 0.54 1.1 c0.14 0.42 0.22 0.88 0.22 1.34 c0 1.48 -0.58 2.62 -1.72 3.42 c-1.14 0.82 -2.64 1.22 -4.48 1.22 z M35.839999999999996 20 l0 -15.6 l11.98 0 l0 3.88 l-7.98 0 l0 2.24 l5.62 0 l0 3.62 l-5.62 0 l0 2 l7.98 0 l0 3.86 l-11.98 0 z M64.7 20.3 c-2.26 0 -4.2 -0.8 -5.82 -2.38 c-1.64 -1.58 -2.46 -3.5 -2.46 -5.72 s0.82 -4.14 2.46 -5.72 c1.62 -1.58 3.56 -2.38 5.82 -2.38 c2.28 0 4.24 0.8 5.86 2.38 s2.42 3.5 2.42 5.72 s-0.8 4.14 -2.42 5.72 s-3.58 2.38 -5.86 2.38 z M64.7 16.44 c1.2 0 2.2 -0.42 3.02 -1.24 s1.22 -1.82 1.22 -3 s-0.4 -2.2 -1.22 -3.02 s-1.82 -1.22 -3.02 -1.22 c-1.18 0 -2.18 0.42 -3 1.24 s-1.24 1.82 -1.24 3 s0.42 2.18 1.24 3 s1.82 1.24 3 1.24 z M74.58 20 l0 -15.6 l11.98 0 l0 3.88 l-7.98 0 l0 2.24 l5.62 0 l0 3.62 l-5.62 0 l0 5.86 l-4 0 z M95.16 20 l6.32 -15.6 l3.96 0 l6.3 15.6 l-4.36 0 l-1.26 -3.48 l-5.3 0 l-1.3 3.48 l-4.36 0 z M102.06 13.280000000000001 l2.78 -0.02 l-1.38 -3.74 z M113.33999999999999 20 l0 -15.6 l3.4 0 l6.96 8.72 l0 -8.72 l3.98 0 l0 15.6 l-3.38 0 l-6.96 -8.7 l0 8.7 l-4 0 z M137.56 20.3 c-2.26 0 -4.2 -0.8 -5.82 -2.38 c-1.64 -1.58 -2.46 -3.5 -2.46 -5.72 s0.82 -4.14 2.46 -5.72 c1.62 -1.58 3.56 -2.38 5.82 -2.38 c2.28 0 4.24 0.8 5.86 2.38 c1.22 1.18 1.98 2.56 2.26 4.1 l-4.18 0 c-0.2 -0.52 -0.52 -1 -0.92 -1.4 c-0.82 -0.82 -1.82 -1.22 -3.02 -1.22 c-1.18 0 -2.18 0.42 -3 1.24 s-1.24 1.82 -1.24 3 s0.42 2.18 1.24 3 s1.82 1.24 3 1.24 c1.2 0 2.2 -0.42 3.02 -1.24 c0.56 -0.56 0.92 -1.18 1.1 -1.92 l4.08 0 c-0.22 1.78 -0.98 3.32 -2.34 4.64 c-1.62 1.58 -3.58 2.38 -5.86 2.38 z M147.36 20 l0 -15.6 l4 0 l0 15.6 l-4 0 z M152.96 20 l0 -15.6 l11.98 0 l0 3.88 l-7.98 0 l0 2.24 l5.62 0 l0 3.62 l-5.62 0 l0 2 l7.98 0 l0 3.86 l-11.98 0 z M166.54000000000002 20 l0 -15.6 l3.4 0 l6.96 8.72 l0 -8.72 l3.98 0 l0 15.6 l-3.38 0 l-6.96 -8.7 l0 8.7 l-4 0 z M187.34 20 l0 -11.72 l-4.86 0 l0 -3.88 l13.72 0 l0 3.88 l-4.86 0 l0 11.72 l-4 0 z M204.44 20.3 c-1.94 0 -3.52 -0.42 -4.76 -1.28 s-1.86 -2.02 -1.86 -3.52 l0 -0.18 l-0.02 -0.8 l3.92 0 l0 0.9 c0 0.34 0.24 0.66 0.7 0.96 s1.1 0.46 1.94 0.46 c0.7 0 1.2 -0.1 1.52 -0.28 c0.3 -0.18 0.46 -0.42 0.46 -0.68 c0 -0.32 -0.2 -0.6 -0.58 -0.84 c-0.4 -0.24 -1.1 -0.52 -2.08 -0.86 c-0.62 -0.22 -1.14 -0.4 -1.56 -0.56 s-0.92 -0.4 -1.5 -0.72 c-0.58 -0.3 -1.06 -0.64 -1.4 -0.98 s-0.64 -0.76 -0.9 -1.28 s-0.38 -1.08 -0.38 -1.7 c0 -1.46 0.56 -2.64 1.7 -3.52 s2.6 -1.32 4.4 -1.32 c1.86 0 3.38 0.46 4.58 1.38 s1.8 2.14 1.8 3.66 l0 0.98 l-3.9 0 l0 -0.9 c0 -0.42 -0.2 -0.82 -0.62 -1.16 s-1.02 -0.5 -1.78 -0.5 c-0.62 0 -1.1 0.1 -1.42 0.3 c-0.32 0.22 -0.48 0.46 -0.48 0.76 s0.18 0.54 0.54 0.74 c0.36 0.22 1.04 0.5 2.04 0.84 l1.02 0.36 l1.08 0.44 c0.46 0.22 0.84 0.4 1.12 0.58 s0.6 0.42 0.98 0.72 s0.66 0.62 0.88 0.92 c0.2 0.3 0.38 0.68 0.54 1.1 c0.14 0.42 0.22 0.88 0.22 1.34 c0 1.48 -0.58 2.62 -1.72 3.42 c-1.14 0.82 -2.64 1.22 -4.48 1.22 z" fill="#FFFFFF"></path></g><g id="SvgjsG1150" featurekey="sloganFeature-0" transform="matrix(1.105265557969304,0,0,1.105265557969304,113.26115177358218,30.409854532233375)" fill="#FFFFFF"><path d="M2.8476 17.9011 l2.1524 0 l0 -9.7727 l-2.7005 0 l0.54813 0.41444 l0 9.3583 z M6.8449 7.34 l0 11.35 c0 0.74866 -0.58824 1.3235 -1.3369 1.3235 l-4.5053 0 l0 -2.1123 l0 -11.471 l-0.33422 -0.41444 l4.8396 0 c0.73529 0 1.3369 0.61497 1.3369 1.3235 z M9.505345668449197 6.43 l-0.33422 -0.41444 l5.254 0 l0 2.1123 l-3.623 0 l0.54813 0.41444 l0 3.4091 l2.1658 0 l0 2.1257 l-2.7139 0 l0.54813 0.40107 l0 3.4225 l3.0749 0 l0 2.1123 l-4.9198 0 l0 -2.1123 l0 -3.8235 l0 -2.1257 l0 -5.5214 z M22.459897860962563 7.34 l0 2.8877 l-1.8316 0 l0 -2.1123 l-2.7005 0 l0.53476 0.41444 l0 1.6979 l3.9973 4.9064 l0 2.1123 l0 1.4439 c0 0.70856 -0.57487 1.3235 -1.3235 1.3235 l-3.1818 0 c-0.74866 0 -1.3235 -0.61497 -1.3235 -1.3235 l0 -2.9813 l1.8316 0 l0 2.1925 l2.1658 0 l0 -2.1123 l-3.9973 -4.9064 l0 -3.5428 c0 -0.74866 0.57487 -1.3235 1.3235 -1.3235 l3.1818 0 c0.74866 0 1.3235 0.57487 1.3235 1.3235 z M26.831591978609623 11.9251 l2.1524 0 l0 -3.8369 l-2.7005 0 l0.54813 0.41444 l0 3.4225 z M30.815491978609625 7.313000000000001 l0 5.4011 c0 0.70856 -0.57487 1.3235 -1.3235 1.3235 l-3.2086 0 l0.54813 0.41444 l0 5.5348 l-1.8449 0 l0 -13.596 l-0.33422 -0.41444 l4.8396 0 c0.74866 0 1.3235 0.58824 1.3235 1.3369 z M33.128340320855614 6.43 l-0.33422 -0.41444 l5.254 0 l0 2.1123 l-3.623 0 l0.54813 0.41444 l0 3.4091 l2.1658 0 l0 2.1257 l-2.7139 0 l0.54813 0.40107 l0 3.4225 l3.0749 0 l0 2.1123 l-4.9198 0 l0 -2.1123 l0 -3.8235 l0 -2.1257 l0 -5.5214 z M42.51341336898396 11.9118 l2.1524 0 l0 -3.8369 l-2.7005 0 l0.54813 0.41444 l0 3.4225 z M46.49731336898396 7.2989999999999995 l0 5.4011 c0 0.74866 -0.57487 1.3235 -1.3235 1.3235 l-0.25401 0 l1.5775 5.9492 l-1.8984 0 l-1.5775 -5.9492 l-1.0561 0 l0.54813 0.41444 l0 5.5348 l-1.8449 0 l0 -11.898 l0 -1.6979 l-0.33422 -0.41444 l4.8396 0.013369 c0.74866 0 1.3235 0.57487 1.3235 1.3235 z M50.74862192513369 8.102 l-1.992 0 l0 -2.1257 l5.8289 0 l0 2.1257 l-2.5401 0 l0.54813 0.40107 l0 11.484 l-1.8449 0 l0 -11.885 z M57.205880427807486 6.43 l-0.33422 -0.41444 l5.254 0 l0 2.1123 l-3.623 0 l0.54813 0.41444 l0 3.4091 l2.1658 0 l0 2.1257 l-2.7139 0 l0.54813 0.40107 l0 3.4225 l3.0749 0 l0 2.1123 l-4.9198 0 l0 -2.1123 l0 -3.8235 l0 -2.1257 l0 -5.5214 z M71.36366737967916 17.9011 l2.1658 0 l0 -9.7727 l-2.7005 0 l0.53476 0.41444 l0 9.3583 z M75.36096737967915 7.34 l0 11.35 c0 0.74866 -0.57487 1.3235 -1.3235 1.3235 l-3.1818 0 c-0.74866 0 -1.3235 -0.57487 -1.3235 -1.3235 l0 -11.35 c0 -0.70856 0.57487 -1.3235 1.3235 -1.3235 l3.1818 0 c0.74866 0 1.3235 0.61497 1.3235 1.3235 z M85.05351711229946 11.9251 l2.1524 0 l0 -3.8369 l-2.7005 0 l0.54813 0.41444 l0 3.4225 z M89.03741711229947 7.313000000000001 l0 5.4011 c0 0.70856 -0.57487 1.3235 -1.3235 1.3235 l-3.2086 0 l0.54813 0.41444 l0 5.5348 l-1.8449 0 l0 -13.596 l-0.33422 -0.41444 l4.8396 0 c0.74866 0 1.3235 0.58824 1.3235 1.3369 z M93.16848021390375 17.9011 l2.1658 0 l0 -9.7727 l-2.7005 0 l0.53476 0.41444 l0 9.3583 z M97.16578021390374 7.34 l0 11.35 c0 0.74866 -0.57487 1.3235 -1.3235 1.3235 l-3.1818 0 c-0.74866 0 -1.3235 -0.57487 -1.3235 -1.3235 l0 -11.35 c0 -0.70856 0.57487 -1.3235 1.3235 -1.3235 l3.1818 0 c0.74866 0 1.3235 0.61497 1.3235 1.3235 z M101.6711294117647 17.9011 l2.1524 0 l0 -9.7727 l-2.7005 0 l0.54813 0.41444 l0 9.3583 z M105.66842941176469 7.34 l0 11.35 c0 0.74866 -0.58824 1.3235 -1.3369 1.3235 l-4.5053 0 l0 -2.1123 l0 -11.471 l-0.33422 -0.41444 l4.8396 0 c0.73529 0 1.3369 0.61497 1.3369 1.3235 z M108.32887508021389 6.43 l-0.33422 -0.41444 l5.254 0 l0 2.1123 l-3.623 0 l0.54813 0.41444 l0 3.4091 l2.1658 0 l0 2.1257 l-2.7139 0 l0.54813 0.40107 l0 3.4225 l3.0749 0 l0 2.1123 l-4.9198 0 l0 -2.1123 l0 -3.8235 l0 -2.1257 l0 -5.5214 z M117.71394812834222 11.9118 l2.1524 0 l0 -3.8369 l-2.7005 0 l0.54813 0.41444 l0 3.4225 z M121.69784812834223 7.2989999999999995 l0 5.4011 c0 0.74866 -0.57487 1.3235 -1.3235 1.3235 l-0.25401 0 l1.5775 5.9492 l-1.8984 0 l-1.5775 -5.9492 l-1.0561 0 l0.54813 0.41444 l0 5.5348 l-1.8449 0 l0 -11.898 l0 -1.6979 l-0.33422 -0.41444 l4.8396 0.013369 c0.74866 0 1.3235 0.57487 1.3235 1.3235 z M131.51070160427807 17.9011 l2.1524 0 l0 -9.7727 l-2.7005 0 l0.54813 0.41444 l0 9.3583 z M135.50800160427806 7.34 l0 11.35 c0 0.74866 -0.58824 1.3235 -1.3369 1.3235 l-4.5053 0 l0 -2.1123 l0 -11.471 l-0.33422 -0.41444 l4.8396 0 c0.73529 0 1.3369 0.61497 1.3369 1.3235 z M139.98666203208555 17.9011 l2.1658 0 l0 -9.7727 l-2.7005 0 l0.53476 0.41444 l0 9.3583 z M143.98396203208557 7.34 l0 11.35 c0 0.74866 -0.57487 1.3235 -1.3235 1.3235 l-3.1818 0 c-0.74866 0 -1.3235 -0.57487 -1.3235 -1.3235 l0 -11.35 c0 -0.70856 0.57487 -1.3235 1.3235 -1.3235 l3.1818 0 c0.74866 0 1.3235 0.61497 1.3235 1.3235 z M152.33957700534756 7.34 l0 2.8877 l-1.8316 0 l0 -2.1123 l-2.7005 0 l0.53476 0.41444 l0 1.6979 l3.9973 4.9064 l0 2.1123 l0 1.4439 c0 0.70856 -0.57487 1.3235 -1.3235 1.3235 l-3.1818 0 c-0.74866 0 -1.3235 -0.61497 -1.3235 -1.3235 l0 -2.9813 l1.8316 0 l0 2.1925 l2.1658 0 l0 -2.1123 l-3.9973 -4.9064 l0 -3.5428 c0 -0.74866 0.57487 -1.3235 1.3235 -1.3235 l3.1818 0 c0.74866 0 1.3235 0.57487 1.3235 1.3235 z M162.1123368983957 15.8021 l1.885 0 l-0.93583 -7.6738 z M159.74598689839573 20.026738 l1.6711 -13.596 l-0.33422 -0.40107 l3.5695 0 l1.7246 13.997 l-1.8583 0 l-0.25401 -2.1123 l-2.9545 -0.013369 l0.49465 0.3877 l-0.2139 1.738 l-1.8449 0 z M168.55615053475935 6.003 l2.6203 0 l1.7112 7.6337 l0 -7.6203 l1.8316 0 l0 13.984 l-2.2861 0 l-1.6979 -7.5936 l0 7.607 l-1.8449 0 l0 -13.596 z M179.03739197860963 8.102 l-1.992 0 l0 -2.1257 l5.8289 0 l0 2.1257 l-2.5401 0 l0.54813 0.40107 l0 11.484 l-1.8449 0 l0 -11.885 z M187.33960962566843 19.973262 l-1.8449 0 l0 -13.583 l-0.33422 -0.41444 l2.1791 0 l0 13.997 z M195.81555080213903 7.34 l0 3.5829 l-1.8316 0 l0 -2.7941 l-2.7005 0 l0.53476 0.41444 l0 9.3583 l2.1658 0 l0 -5.5348 l-0.54813 -0.41444 l2.3797 0 l0 8.0615 l-4.5053 0 c-0.74866 0 -1.3235 -0.57487 -1.3235 -1.3235 l0 -11.35 c0 -0.70856 0.57487 -1.3235 1.3235 -1.3235 l3.1818 0 c0.74866 0 1.3235 0.61497 1.3235 1.3235 z M200.25404171122992 17.9011 l2.1658 0 l0 -9.7727 l-2.7005 0 l0.53476 0.41444 l0 9.3583 z M204.25134171122994 7.34 l0 11.35 c0 0.74866 -0.57487 1.3235 -1.3235 1.3235 l-3.1818 0 c-0.74866 0 -1.3235 -0.57487 -1.3235 -1.3235 l0 -11.35 c0 -0.70856 0.57487 -1.3235 1.3235 -1.3235 l3.1818 0 c0.74866 0 1.3235 0.61497 1.3235 1.3235 z M212.60695668449193 7.34 l0 2.8877 l-1.8316 0 l0 -2.1123 l-2.7005 0 l0.53476 0.41444 l0 1.6979 l3.9973 4.9064 l0 2.1123 l0 1.4439 c0 0.70856 -0.57487 1.3235 -1.3235 1.3235 l-3.1818 0 c-0.74866 0 -1.3235 -0.61497 -1.3235 -1.3235 l0 -2.9813 l1.8316 0 l0 2.1925 l2.1658 0 l0 -2.1123 l-3.9973 -4.9064 l0 -3.5428 c0 -0.74866 0.57487 -1.3235 1.3235 -1.3235 l3.1818 0 c0.74866 0 1.3235 0.57487 1.3235 1.3235 z" fill="#FFFFFF"></path></g></svg>