<svg xmlns:xlink="http://www.w3.org/1999/xlink" xmlns="http://www.w3.org/2000/svg" width="395.99999999999994" height="189.2" viewBox="0 0 450 215" class="css-1j8o68f"><defs id="SvgjsDefs4683"></defs><g id="SvgjsG4684" featurekey="rootContainer" transform="matrix(1,0,0,1,0,0)" fill="#FFFFFF"><path xmlns="http://www.w3.org/2000/svg" fill-rule="evenodd" d=" M0,0 H450 V215 H0,0 z M2,2 H448 V213 H2,2 z M6,6 H444 V209 H6 z M8,8 H442 V207 H6,8 z " fill="#FFFFFF"></path></g><g id="SvgjsG4685" featurekey="symbolFeature-0" transform="matrix(0.0695345099151865,0,0,0.0695345099151865,201.9652327450424,49.96523274504241)" fill="#FCFCFC"><g xmlns="http://www.w3.org/2000/svg" fill="#FCFCFC"><path d="M534,247.1c11.2-11.2,17.4-26.1,17.4-42c0-32.8-26.7-59.4-59.4-59.4c-32.7,0-59.4,26.7-59.4,59.4c0,15.9,6.2,30.8,17.4,42   L652.8,450l-42,42L408,289.1c-21.5-21.5-34.8-51.3-34.8-84.1v0c0-65.6,53.2-118.8,118.8-118.8c65.6,0,118.8,53.2,118.8,118.8   c0,32.8-13.3,62.5-34.8,84L534,247.1z" fill="#FCFCFC"></path><path d="M534,247.1l8.1,8.1c13.4-13.3,20.8-31.3,20.8-50.2c0-39.1-31.8-70.9-70.9-70.9c-39.1,0-70.8,31.8-70.9,70.9v0   c0,18.9,7.4,36.8,20.8,50.2L636.6,450l-25.7,25.7L416.1,281c-19.5-19.5-31.4-46.3-31.4-75.9c0-3-1.2-6-3.4-8.1s-5.1-3.4-8.1-3.4   c-3,0-6,1.2-8.1,3.4s-3.4,5.1-3.4,8.1v0c0,3,1.2,6,3.4,8.1s5.1,3.4,8.1,3.4c3,0,6-1.2,8.1-3.4s3.4-5.1,3.4-8.1   c0.1-59.3,48.1-107.2,107.3-107.3c59.3,0.1,107.2,48.1,107.3,107.3c0,29.7-12,56.4-31.4,75.9l8.1,8.1l8.1-8.1l-42-42L534,247.1   l8.1,8.1L534,247.1l-8.1,8.1l42,42c2.1,2.1,5.1,3.4,8.1,3.4c3,0,6-1.2,8.1-3.4c23.6-23.6,38.2-56.2,38.2-92.2   c0-72-58.3-130.3-130.3-130.3c-72,0-130.3,58.3-130.3,130.3c0,3,1.2,6,3.4,8.1s5.1,3.4,8.1,3.4c3,0,6-1.2,8.1-3.4s3.4-5.1,3.4-8.1   v0c0-3-1.2-6-3.4-8.1s-5.1-3.4-8.1-3.4c-3,0-6,1.2-8.1,3.4s-3.4,5.1-3.4,8.1c0,35.9,14.6,68.6,38.2,92.2l202.9,202.8   c4.5,4.5,11.8,4.5,16.3,0l42-42c2.1-2.1,3.4-5.1,3.4-8.1c0-3-1.2-6-3.4-8.1L458.1,239c-9.1-9.1-14-21-14.1-33.9v0   c0-26.4,21.5-47.9,47.9-47.9c26.4,0,47.9,21.5,47.9,47.9c0,12.9-4.9,24.8-14,33.9c-2.2,2.2-3.4,5.1-3.4,8.1c0,3.1,1.2,6,3.4,8.1   L534,247.1z" fill="#FCFCFC"></path><path d="M736.8,534c11.2,11.2,26.1,17.4,42,17.4c32.7,0,59.4-26.7,59.4-59.4c0-32.8-26.6-59.4-59.3-59.4v0   c-15.9,0-30.8,6.2-42,17.4L534,652.8l-42-42L694.9,408c21.5-21.5,51.2-34.8,84-34.8l0,0c65.6,0,118.8,53.2,118.8,118.9   s-53.2,118.8-118.8,118.8c-32.8,0-62.5-13.3-84-34.8L736.8,534z" fill="#FCFCFC"></path><path d="M736.8,534l-8.1,8.1c13.3,13.4,31.3,20.8,50.2,20.8c39.1,0,70.9-31.8,70.9-70.9c0-39.1-31.7-70.9-70.8-70.9   c-3.1,0-6,1.2-8.1,3.4c-2.2,2.2-3.4,5.1-3.4,8.1v0h11.5v-11.5c-18.9,0-36.8,7.4-50.2,20.7l0,0L534,636.6l-25.7-25.7L703,416.1   c19.5-19.4,46.2-31.4,75.9-31.4c5.3,0,10-3.7,11.2-8.9c1.2-5.2-1.3-10.6-6.1-12.9l0,0l-5.1,10.3v11.5   c59.3,0.1,107.2,48.1,107.3,107.4c-0.1,59.3-48.1,107.2-107.3,107.3c-29.7,0-56.4-12-75.9-31.4l-8.1,8.1l8.1,8.1l42-42L736.8,534   l-8.1,8.1L736.8,534l-8.1-8.1l-42,42c-4.5,4.5-4.5,11.8,0,16.3c23.5,23.6,56.2,38.2,92.2,38.2c72,0,130.3-58.3,130.3-130.3   c0-72-58.3-130.4-130.3-130.4c-5.3,0-10,3.7-11.2,8.9c-1.2,5.2,1.3,10.6,6.1,12.9l0,0l5.1-10.3v-11.5c-36,0-68.6,14.6-92.2,38.2   L483.9,602.7c-2.1,2.1-3.4,5.1-3.4,8.1c0,3,1.2,6,3.4,8.1l42,42c4.5,4.5,11.8,4.5,16.3,0L745,458.1l0,0c9.2-9.1,21-14,33.9-14   c3,0,6-1.2,8.1-3.4s3.4-5.1,3.4-8.1v0h-11.5l0,11.5c26.4,0,47.9,21.5,47.8,47.9c0,26.4-21.5,47.9-47.9,47.9   c-12.9,0-24.8-4.9-33.9-14c-2.2-2.2-5.1-3.4-8.1-3.4c-3.1,0-6,1.2-8.1,3.4L736.8,534z" fill="#FCFCFC"></path><path d="M247.1,450c-11.3-11.2-26.1-17.4-42-17.4c-32.8,0-59.4,26.7-59.4,59.4c0,32.8,26.6,59.4,59.4,59.5v0   c15.9,0,30.8-6.2,42-17.4L450,331.2l42,42L289.1,576c-21.5,21.5-51.3,34.8-84.1,34.8l0,0c-65.7,0-118.8-53.2-118.8-118.9   c0-65.6,53.2-118.8,118.8-118.8c32.8,0,62.5,13.3,84,34.8L247.1,450z" fill="#FCFCFC"></path><path d="M247.1,450l8.1-8.1c-13.3-13.4-31.3-20.8-50.2-20.8c-39.1,0-70.9,31.8-70.9,70.9c0,39.1,31.7,70.9,70.9,71   c3.1,0,6-1.2,8.1-3.4c2.2-2.2,3.4-5.1,3.4-8.1v0h-11.5v11.5c18.9,0,36.8-7.4,50.2-20.8l0,0L450,347.4l25.7,25.7L281,567.9l0,0   c-19.5,19.4-46.3,31.4-75.9,31.5c-5.1,0-9.5,3.3-11,8.1c-1.5,4.8,0.4,10.1,4.6,12.9l0,0l6.4-9.5v-11.5   C145.8,599.2,97.9,551.3,97.8,492c0.1-59.3,48-107.2,107.3-107.3c29.7,0,56.4,12,75.9,31.4l8.1-8.1l-8.1-8.1l-42,42L247.1,450   l8.1-8.1L247.1,450l8.1,8.1l42-42c2.2-2.2,3.4-5.1,3.4-8.1c0-3.1-1.2-6-3.4-8.1c-23.6-23.5-56.2-38.2-92.2-38.1   c-72,0-130.3,58.3-130.3,130.3c0,72,58.3,130.4,130.3,130.4c5.1,0,9.5-3.3,11-8.1c1.5-4.8-0.4-10.1-4.6-12.9l0,0l-6.4,9.5v11.5   c35.9,0,68.6-14.6,92.2-38.2l0,0l202.9-202.8c4.5-4.5,4.5-11.8,0-16.3l-42-42c-4.5-4.5-11.8-4.5-16.3,0L239,525.9l0,0   c-9.2,9.1-21,14-33.9,14.1c-3,0-6,1.2-8.1,3.4s-3.4,5.1-3.4,8.1v0h11.5l0-11.5c-26.4,0-47.9-21.5-47.9-48   c0-26.4,21.5-47.8,47.9-47.9c12.9,0,24.7,4.9,33.9,14c4.5,4.5,11.8,4.5,16.3,0L247.1,450z" fill="#FCFCFC"></path><path d="M778.9,298.9h-11.5v0L778.9,298.9v-11.5c-49.3,0-96,17.5-133,49.3l7.5,8.7l8.1-8.1l-14.7-14.7l-8.1,8.1l8.7,7.5   c31.8-37,49.2-83.8,49.2-133.1l0,0C696.6,92.3,604.9,0.5,492,0.5c-112.9,0-204.6,91.8-204.6,204.6c0,49.3,17.6,96,49.3,133l8.7-7.5   l-8.1-8.1l-14.7,14.7l8.1,8.1l7.5-8.7c-37-31.8-83.9-49.2-133.2-49.2C92.3,287.4,0.5,379.2,0.5,492c0,112.9,91.8,204.6,204.6,204.7   c3,0,6-1.2,8.1-3.4s3.4-5.1,3.4-8.1v0h-11.5v11.5c49.3,0,96-17.5,133-49.3l-7.5-8.7l-8.1,8.1l14.7,14.7l8.1-8.1l-8.7-7.5   c-31.8,37-49.2,83.9-49.2,133.1c0,112.8,91.8,204.6,204.6,204.6c112.9,0,204.6-91.8,204.6-204.6c0-3-1.2-6-3.4-8.1   s-5.1-3.4-8.1-3.4h0v11.5h11.5c0-49.3-17.5-96-49.3-133l-8.7,7.5l8.1,8.1l14.7-14.7l-8.1-8.1l-7.5,8.7   c37,31.9,83.9,49.2,133.2,49.2l0,0c112.8,0,204.6-91.8,204.6-204.6c0-112.9-91.8-204.6-204.6-204.7c-3,0-6,1.2-8.1,3.4   s-3.4,5.1-3.4,8.1H778.9v11.5C879,310.6,960.3,391.9,960.5,492c-0.2,100.1-81.5,181.4-181.6,181.6l0,0   c-43.9,0-85.2-15.4-118.2-43.7c-4.6-3.9-11.4-3.7-15.6,0.6l-14.7,14.7c-4.2,4.2-4.5,11.1-0.6,15.6c28.3,33,43.8,74.2,43.8,118   c0,3,1.2,6,3.4,8.1s5.1,3.4,8.1,3.4h0v-11.5h-11.5C673.4,879,592.1,960.3,492,960.5c-100.1-0.2-181.5-81.5-181.6-181.6   c0-43.9,15.4-85.2,43.7-118.2c3.9-4.6,3.7-11.4-0.6-15.6l-14.7-14.7c-4.2-4.2-11.1-4.5-15.6-0.6c-33,28.3-74.2,43.8-118,43.8   c-3,0-6,1.2-8.1,3.4s-3.4,5.1-3.4,8.1v0h11.5v-11.5C105,673.4,23.7,592.1,23.5,492c0.2-100.1,81.5-181.4,181.6-181.6   c43.9,0,85.2,15.4,118.2,43.7c4.6,3.9,11.4,3.6,15.6-0.6l14.7-14.7c4.2-4.2,4.5-11.1,0.6-15.6c-28.3-32.9-43.8-74.2-43.8-118   C310.6,105,391.9,23.7,492,23.5c100.1,0.2,181.4,81.5,181.6,181.6l0,0c0,43.9-15.4,85.3-43.6,118.2c-3.9,4.6-3.7,11.4,0.6,15.6   l14.7,14.7c4.2,4.2,11.1,4.5,15.6,0.6c33-28.3,74.2-43.8,118-43.8c3,0,6-1.2,8.1-3.4s3.4-5.1,3.4-8.1v0H778.9v11.5V298.9z" fill="#FCFCFC"></path><path d="M450,736.8c-11.2,11.2-17.4,26.1-17.4,42c0,32.7,26.7,59.4,59.4,59.4c32.7,0,59.4-26.6,59.4-59.4h0   c0-15.9-6.2-30.8-17.4-42L331.1,534l42-42L576,694.9c21.5,21.5,34.8,51.2,34.8,84l0,0c0,65.6-53.2,118.8-118.8,118.8   c-65.7,0-118.8-53.2-118.8-118.8c0-32.8,13.3-62.5,34.8-84L450,736.8z" fill="#FCFCFC"></path><path d="M450,736.8l-8.1-8.1c-13.3,13.3-20.8,31.3-20.7,50.1c0,39.1,31.8,70.9,70.9,70.9c39.1,0,70.9-31.7,70.9-70.9   c0-3.1-1.2-6-3.4-8.1c-2.2-2.2-5.1-3.4-8.1-3.4h0v11.5h11.5c0-18.9-7.4-36.8-20.7-50.2l0,0L347.4,534l25.7-25.8L567.8,703   c19.5,19.5,31.5,46.2,31.5,75.9c0,5.4,3.7,10,8.9,11.2c5.2,1.2,10.6-1.4,12.9-6.2l0,0l-10.4-5h-11.5   c-0.1,59.3-48.1,107.2-107.3,107.3c-59.3-0.1-107.2-48.1-107.3-107.3c0-29.7,12-56.4,31.4-75.9l-8.1-8.1l-8.1,8.1l42,42L450,736.8   l-8.1-8.1L450,736.8l8.1-8.1l-42-42c-4.5-4.5-11.8-4.5-16.3,0c-23.6,23.5-38.2,56.2-38.2,92.2c0,72,58.3,130.3,130.3,130.3   c72,0,130.3-58.3,130.3-130.3c0-5.4-3.7-10-8.9-11.2c-5.2-1.2-10.6,1.4-12.9,6.2l0,0l10.4,5h11.5c0-36-14.6-68.6-38.2-92.2   L381.3,483.8c-2.2-2.2-5.1-3.4-8.1-3.4c-3.1,0-6,1.2-8.1,3.4l-42,42c-4.5,4.5-4.5,11.8,0,16.3L525.9,745l0,0   c9.1,9.2,14,21.1,14.1,33.9c0,3,1.2,6,3.4,8.1s5.1,3.4,8.1,3.4h0v-11.5l-11.5,0c0,26.4-21.5,47.8-47.9,47.9   c-26.4,0-47.9-21.5-47.9-47.9c0-12.9,4.9-24.8,14-33.9c4.5-4.5,4.5-11.8,0-16.3L450,736.8z" fill="#FCFCFC"></path><path d="M491.9,610.8l8.1-8.1L389.3,492l102.6-102.5L594.5,492L483.8,602.7L491.9,610.8l8.1-8.1L491.9,610.8l8.1,8.1l118.8-118.8   c2.1-2.1,3.4-5.1,3.4-8.1c0-3-1.2-6-3.4-8.1L500,365c-4.5-4.5-11.8-4.5-16.3,0L364.9,483.8c-4.5,4.5-4.5,11.8,0,16.3L483.8,619   c2.1,2.1,5.1,3.4,8.1,3.4c3,0,6-1.2,8.1-3.4L491.9,610.8z" fill="#FCFCFC"></path></g></g><g id="SvgjsG4686" featurekey="vMvB0T-0" transform="matrix(1.8050542084434067,0,0,1.8050542084434067,47.07580980674298,128.9867626410297)" fill="#FFFFFF"><path d="M11.1 14.1 l3.02 4.62 q0.22 0.36 0.02 0.72 q-0.08 0.16 -0.25 0.26 t-0.35 0.1 l-1.82 0 q-0.18 0 -0.34 -0.09 t-0.24 -0.23 l-3.04 -4.82 l-3.56 0 l0 4.44 q0 0.28 -0.21 0.49 t-0.49 0.21 l-1.52 0 q-0.28 0 -0.49 -0.21 t-0.21 -0.49 l0 -6.58 q0 -0.28 0.21 -0.49 t0.49 -0.21 l6.16 0 q1.76 0 2.34 -1 q0.2 -0.32 0.2 -0.92 q0 -0.94 -0.62 -1.48 q-0.64 -0.58 -1.84 -0.58 l-6.24 0 q-0.28 0 -0.49 -0.21 t-0.21 -0.49 l0 -1.44 q0 -0.28 0.21 -0.49 t0.49 -0.21 l6.42 0 q2.34 0 3.74 1.32 q1.46 1.32 1.46 3.58 q0 1.46 -0.64 2.49 t-1.86 1.57 z M18.759999999999998 10.94 q0.3 0 0.5 0.21 t0.2 0.51 l0 7.48 q0 0.28 -0.2 0.49 t-0.5 0.21 l-1.52 0 q-0.28 0 -0.49 -0.21 t-0.21 -0.49 l0 -7.48 q0 -0.3 0.21 -0.51 t0.49 -0.21 l1.52 0 z M18.759999999999998 5 q0.3 0 0.5 0.21 t0.2 0.49 l0 3.7 q0 0.3 -0.2 0.51 t-0.5 0.21 l-1.52 0 q-0.28 0 -0.49 -0.21 t-0.21 -0.51 l0 -3.7 q0 -0.28 0.21 -0.49 t0.49 -0.21 l1.52 0 z M32.48 12.42 q0.86 0.54 1.31 1.32 t0.45 1.74 q0 2.26 -1.72 3.46 q-1.16 0.84 -3.14 1.06 l-0.08 0 q-0.28 0 -0.46 -0.18 q-0.24 -0.22 -0.24 -0.52 l0 -1.44 q0 -0.26 0.18 -0.46 t0.44 -0.24 q0.94 -0.1 1.46 -0.44 q0.4 -0.24 0.54 -0.62 q0.08 -0.22 0.08 -0.56 q0 -0.22 -0.08 -0.38 t-0.28 -0.3 q-0.58 -0.4 -1.5 -0.68 l-0.32 -0.1 q-1 -0.28 -1.84 -0.46 q-0.18 -0.04 -0.58 -0.14 l-0.22 -0.06 q-0.72 -0.18 -1.52 -0.5 q-1.18 -0.5 -1.94 -1.26 q-0.88 -0.88 -0.88 -2.32 q0 -1.98 1.52 -3.22 q1.04 -0.88 2.92 -1.12 q0.32 -0.04 0.55 0.18 t0.23 0.52 l0 1.44 q0 0.26 -0.16 0.46 t-0.41 0.23 t-0.51 0.11 q-0.58 0.22 -0.82 0.43 t-0.34 0.43 q-0.1 0.34 -0.1 0.64 q0 0.16 0.18 0.34 q0.28 0.28 0.82 0.5 q0.24 0.1 0.84 0.3 l2.5 0.62 l0.12 0.04 q0.94 0.26 1.36 0.4 q0.94 0.32 1.64 0.78 z M29.14 7.9 q-0.24 -0.06 -0.39 -0.25 t-0.15 -0.45 l0 -1.46 q0 -0.32 0.26 -0.54 q0.1 -0.1 0.26 -0.13 t0.3 -0.01 q1.76 0.28 2.86 1.2 q1.5 1.24 1.6 3.16 q0.02 0.28 -0.19 0.51 t-0.51 0.23 l-1.56 0 q-0.26 0 -0.46 -0.18 t-0.22 -0.44 q-0.08 -0.52 -0.34 -0.86 q-0.42 -0.5 -1.3 -0.76 q-0.06 0 -0.08 -0.02 l-0.08 0 z M26.799999999999997 17.08 q0.24 0.04 0.4 0.24 t0.16 0.44 l0 1.48 q0 0.32 -0.24 0.54 q-0.2 0.16 -0.46 0.16 l-0.1 0 q-1.86 -0.28 -3.06 -1.22 q-1.56 -1.24 -1.76 -3.46 q-0.04 -0.32 0.18 -0.55 t0.52 -0.23 l1.58 0 q0.28 0 0.48 0.19 t0.22 0.47 q0.06 1 0.98 1.54 q0.42 0.24 1.1 0.4 z M47.14 16.96 q0.3 0 0.5 0.21 t0.2 0.51 l0 1.46 q0 0.28 -0.2 0.49 t-0.5 0.21 l-9.88 0 q-0.28 0 -0.49 -0.21 t-0.21 -0.49 l0 -1.46 q0 -0.3 0.21 -0.51 t0.49 -0.21 l9.88 0 z M37.26 13.86 q-0.28 0 -0.49 -0.21 t-0.21 -0.49 l0 -1.5 q0 -0.28 0.21 -0.49 t0.49 -0.21 l8.98 0 q0.3 0 0.51 0.21 t0.21 0.49 l0 1.5 q0 0.28 -0.21 0.49 t-0.51 0.21 l-8.98 0 z M47.14 5 q0.3 0 0.5 0.21 t0.2 0.49 l0 1.46 q0 0.3 -0.2 0.51 t-0.5 0.21 l-9.88 0 q-0.28 0 -0.49 -0.21 t-0.21 -0.51 l0 -1.46 q0 -0.28 0.21 -0.49 t0.49 -0.21 l9.88 0 z M60.260000000000005 5.16 q0.24 0.2 0.24 0.54 l0 1.5 q0 0.26 -0.15 0.45 t-0.41 0.25 q-1.28 0.26 -2.18 1.22 q-1.22 1.28 -1.22 3.33 t1.22 3.35 q0.9 0.94 2.18 1.2 q0.26 0.06 0.41 0.25 t0.15 0.45 l0 1.5 q0 0.32 -0.24 0.54 q-0.22 0.16 -0.46 0.16 l-0.12 0 q-2.32 -0.38 -3.98 -2.1 q-2.08 -2.14 -2.08 -5.33 t2.08 -5.37 q1.62 -1.68 3.98 -2.08 q0.32 -0.06 0.58 0.14 z M66.54 7.1 q2.08 2.18 2.08 5.37 t-2.08 5.33 q-1.66 1.72 -3.98 2.1 l-0.12 0 q-0.24 0 -0.46 -0.16 q-0.24 -0.22 -0.24 -0.54 l0 -1.5 q0 -0.26 0.15 -0.45 t0.41 -0.25 q1.28 -0.26 2.18 -1.2 q1.22 -1.3 1.22 -3.35 t-1.22 -3.33 q-0.9 -0.96 -2.18 -1.22 q-0.26 -0.06 -0.41 -0.25 t-0.15 -0.45 l0 -1.5 q0 -0.34 0.25 -0.54 t0.57 -0.14 q2.36 0.4 3.98 2.08 z M80.52000000000001 11.12 q0.3 0 0.51 0.21 t0.21 0.51 l0 1.48 q0 0.28 -0.21 0.49 t-0.51 0.21 l-6.58 0 l0 5.12 q0 0.28 -0.2 0.49 t-0.5 0.21 l-1.52 0 q-0.28 0 -0.49 -0.21 t-0.21 -0.49 l0 -7.3 q0 -0.3 0.21 -0.51 t0.49 -0.21 l8.8 0 z M81.42 5 q0.28 0 0.49 0.21 t0.21 0.49 l0 1.46 q0 0.3 -0.21 0.51 t-0.49 0.21 l-9.7 0 q-0.28 0 -0.49 -0.21 t-0.21 -0.51 l0 -1.46 q0 -0.28 0.21 -0.49 t0.49 -0.21 l9.7 0 z M101.58000000000001 18.86 q0.14 0.32 -0.07 0.65 t-0.57 0.33 l-13.32 0 q-0.18 0 -0.34 -0.09 t-0.24 -0.23 q-0.22 -0.32 -0.06 -0.66 l0.62 -1.46 q0.08 -0.2 0.26 -0.32 t0.38 -0.12 l9.32 0 l-3.28 -7.84 l-2.68 6.4 q-0.08 0.2 -0.25 0.31 t-0.39 0.11 l-1.68 0 q-0.38 0 -0.6 -0.32 q-0.08 -0.14 -0.1 -0.32 t0.04 -0.34 l4.06 -9.52 q0.08 -0.2 0.25 -0.32 t0.39 -0.12 l1.92 0 q0.22 0 0.39 0.12 t0.25 0.32 z M115.62 5 q0.28 0 0.49 0.21 t0.21 0.49 l0 13.4 q0 0.28 -0.21 0.49 t-0.49 0.21 l-1.76 0 q-0.36 0 -0.58 -0.28 l-9.78 -13.4 q-0.12 -0.16 -0.14 -0.36 t0.07 -0.38 t0.26 -0.28 t0.37 -0.1 l1.76 0 q0.16 0 0.32 0.07 t0.24 0.21 l7.02 9.54 l0 -9.12 q0 -0.28 0.2 -0.49 t0.5 -0.21 l1.52 0 z M105.58000000000001 14.7 q0.28 0 0.49 0.2 t0.21 0.5 l0 3.7 q0 0.28 -0.21 0.49 t-0.49 0.21 l-1.52 0 q-0.28 0 -0.49 -0.21 t-0.21 -0.49 l0 -3.7 q0 -0.3 0.21 -0.5 t0.49 -0.2 l1.52 0 z M126.94000000000001 7.859999999999999 q-0.26 -0.04 -0.43 -0.24 t-0.17 -0.46 l0 -1.46 q0 -0.34 0.24 -0.54 t0.56 -0.16 q1.72 0.28 3.06 1.22 q1.74 1.26 2.46 3.34 q0.12 0.34 -0.08 0.64 t-0.58 0.3 l-1.6 0 q-0.22 0 -0.4 -0.11 t-0.26 -0.31 q-0.44 -1.04 -1.34 -1.66 q-0.7 -0.44 -1.46 -0.56 z M132 14.5 q0.38 0 0.58 0.3 t0.08 0.64 q-0.72 2.08 -2.46 3.34 q-1.34 0.94 -3.06 1.22 l-0.1 0 q-0.28 0 -0.46 -0.18 q-0.24 -0.18 -0.24 -0.52 l0 -1.46 q0 -0.26 0.16 -0.46 t0.42 -0.24 q0.84 -0.12 1.48 -0.56 q0.9 -0.62 1.34 -1.66 q0.08 -0.2 0.26 -0.31 t0.4 -0.11 l1.6 0 z M124.84000000000002 5.24 q0.26 0.2 0.26 0.54 l0 1.56 q0 0.22 -0.15 0.41 t-0.37 0.27 q-0.28 0.06 -0.44 0.14 q-0.8 0.36 -1.36 0.98 q-1.14 1.28 -1.14 3.35 t1.14 3.37 q0.7 0.8 1.8 1.12 q0.22 0.06 0.37 0.25 t0.15 0.41 l0 1.58 q0 0.34 -0.26 0.54 q-0.18 0.16 -0.46 0.16 l-0.14 0 q-2.14 -0.46 -3.62 -2.08 q-1.9 -2.14 -1.9 -5.34 t1.9 -5.34 q1.48 -1.64 3.62 -2.06 q0.32 -0.08 0.6 0.14 z M137.18 10.94 q0.3 0 0.5 0.21 t0.2 0.51 l0 7.48 q0 0.28 -0.2 0.49 t-0.5 0.21 l-1.52 0 q-0.28 0 -0.49 -0.21 t-0.21 -0.49 l0 -7.48 q0 -0.3 0.21 -0.51 t0.49 -0.21 l1.52 0 z M137.18 5 q0.3 0 0.5 0.21 t0.2 0.49 l0 3.7 q0 0.3 -0.2 0.51 t-0.5 0.21 l-1.52 0 q-0.28 0 -0.49 -0.21 t-0.21 -0.51 l0 -3.7 q0 -0.28 0.21 -0.49 t0.49 -0.21 l1.52 0 z M151.7 16.96 q0.3 0 0.5 0.21 t0.2 0.51 l0 1.46 q0 0.28 -0.2 0.49 t-0.5 0.21 l-9.88 0 q-0.28 0 -0.49 -0.21 t-0.21 -0.49 l0 -1.46 q0 -0.3 0.21 -0.51 t0.49 -0.21 l9.88 0 z M141.82 13.86 q-0.28 0 -0.49 -0.21 t-0.21 -0.49 l0 -1.5 q0 -0.28 0.21 -0.49 t0.49 -0.21 l8.98 0 q0.3 0 0.51 0.21 t0.21 0.49 l0 1.5 q0 0.28 -0.21 0.49 t-0.51 0.21 l-8.98 0 z M151.7 5 q0.3 0 0.5 0.21 t0.2 0.49 l0 1.46 q0 0.3 -0.2 0.51 t-0.5 0.21 l-9.88 0 q-0.28 0 -0.49 -0.21 t-0.21 -0.51 l0 -1.46 q0 -0.28 0.21 -0.49 t0.49 -0.21 l9.88 0 z M167.07999999999998 5 q0.28 0 0.49 0.21 t0.21 0.49 l0 13.4 q0 0.28 -0.21 0.49 t-0.49 0.21 l-1.76 0 q-0.36 0 -0.58 -0.28 l-9.78 -13.4 q-0.12 -0.16 -0.14 -0.36 t0.07 -0.38 t0.26 -0.28 t0.37 -0.1 l1.76 0 q0.16 0 0.32 0.07 t0.24 0.21 l7.02 9.54 l0 -9.12 q0 -0.28 0.2 -0.49 t0.5 -0.21 l1.52 0 z M157.04 14.7 q0.28 0 0.49 0.2 t0.21 0.5 l0 3.7 q0 0.28 -0.21 0.49 t-0.49 0.21 l-1.52 0 q-0.28 0 -0.49 -0.21 t-0.21 -0.49 l0 -3.7 q0 -0.3 0.21 -0.5 t0.49 -0.2 l1.52 0 z M172.43999999999997 5 q0.3 0 0.51 0.21 t0.21 0.51 l0 1.46 q0 0.3 -0.21 0.51 t-0.51 0.21 l-2.06 0 q-0.28 0 -0.49 -0.21 t-0.21 -0.51 l0 -1.46 q0 -0.3 0.21 -0.51 t0.49 -0.21 l2.06 0 z M181.37999999999997 5 q0.28 0 0.49 0.21 t0.21 0.51 l0 1.46 q0 0.3 -0.21 0.51 t-0.49 0.21 l-4.02 0 l0 11.36 q0 0.28 -0.21 0.49 t-0.49 0.21 l-1.54 0 q-0.3 0 -0.51 -0.21 t-0.21 -0.49 l0 -13.54 q0 -0.3 0.21 -0.51 t0.51 -0.21 l6.26 0 z M193.76 12.42 q0.86 0.54 1.31 1.32 t0.45 1.74 q0 2.26 -1.72 3.46 q-1.16 0.84 -3.14 1.06 l-0.08 0 q-0.28 0 -0.46 -0.18 q-0.24 -0.22 -0.24 -0.52 l0 -1.44 q0 -0.26 0.18 -0.46 t0.44 -0.24 q0.94 -0.1 1.46 -0.44 q0.4 -0.24 0.54 -0.62 q0.08 -0.22 0.08 -0.56 q0 -0.22 -0.08 -0.38 t-0.28 -0.3 q-0.58 -0.4 -1.5 -0.68 l-0.32 -0.1 q-1 -0.28 -1.84 -0.46 q-0.18 -0.04 -0.58 -0.14 l-0.22 -0.06 q-0.72 -0.18 -1.52 -0.5 q-1.18 -0.5 -1.94 -1.26 q-0.88 -0.88 -0.88 -2.32 q0 -1.98 1.52 -3.22 q1.04 -0.88 2.92 -1.12 q0.32 -0.04 0.55 0.18 t0.23 0.52 l0 1.44 q0 0.26 -0.16 0.46 t-0.41 0.23 t-0.51 0.11 q-0.58 0.22 -0.82 0.43 t-0.34 0.43 q-0.1 0.34 -0.1 0.64 q0 0.16 0.18 0.34 q0.28 0.28 0.82 0.5 q0.24 0.1 0.84 0.3 l2.5 0.62 l0.12 0.04 q0.94 0.26 1.36 0.4 q0.94 0.32 1.64 0.78 z M190.42 7.9 q-0.24 -0.06 -0.39 -0.25 t-0.15 -0.45 l0 -1.46 q0 -0.32 0.26 -0.54 q0.1 -0.1 0.26 -0.13 t0.3 -0.01 q1.76 0.28 2.86 1.2 q1.5 1.24 1.6 3.16 q0.02 0.28 -0.19 0.51 t-0.51 0.23 l-1.56 0 q-0.26 0 -0.46 -0.18 t-0.22 -0.44 q-0.08 -0.52 -0.34 -0.86 q-0.42 -0.5 -1.3 -0.76 q-0.06 0 -0.08 -0.02 l-0.08 0 z M188.07999999999998 17.08 q0.24 0.04 0.4 0.24 t0.16 0.44 l0 1.48 q0 0.32 -0.24 0.54 q-0.2 0.16 -0.46 0.16 l-0.1 0 q-1.86 -0.28 -3.06 -1.22 q-1.56 -1.24 -1.76 -3.46 q-0.04 -0.32 0.18 -0.55 t0.52 -0.23 l1.58 0 q0.28 0 0.48 0.19 t0.22 0.47 q0.06 1 0.98 1.54 q0.42 0.24 1.1 0.4 z" fill="#FFFFFF"></path></g></svg>