<?xml version="1.0" encoding="UTF-8"?>
<!DOCTYPE svg PUBLIC "-//W3C//DTD SVG 1.1//EN" "http://www.w3.org/Graphics/SVG/1.1/DTD/svg11.dtd">
<!-- Creator: CorelDRAW -->
<svg xmlns="http://www.w3.org/2000/svg" xml:space="preserve" width="109.016mm" height="54.291mm" version="1.1" style="shape-rendering:geometricPrecision; text-rendering:geometricPrecision; image-rendering:optimizeQuality; fill-rule:evenodd; clip-rule:evenodd"
viewBox="0 0 10901.6 5429.1"
 xmlns:xlink="http://www.w3.org/1999/xlink"
 xmlns:xodm="http://www.corel.com/coreldraw/odm/2003">
 <defs>
  <style type="text/css">
   <![CDATA[
    .fil0 {fill:#1D2024}
    .fil1 {fill:#FEFEFE}
    .fil2 {fill:#FEFEFE;fill-rule:nonzero}
   ]]>
  </style>
 </defs>
 <g id="Camada_x0020_1">
  <metadata id="CorelCorpID_0Corel-Layer"/>
  <g id="_2148461351184">
   <rect class="fil0" x="-1.73" y="3.25" width="10901.6" height="5429.1"/>
   <path class="fil1" d="M210.32 214.85l10477.5 0 0 5005.92 -10477.5 0 0 0 0 -5005.92zm46.57 46.57l10384.36 0 0 4912.78 -10384.36 0 0 0 0 -4912.78zm93.13 93.13l10198.1 0 0 4726.52 -10198.1 0 0 -4726.52zm46.57 46.57l10104.96 0 0 4633.38 -10151.53 0 46.57 0 0 -4633.38z"/>
   <path class="fil2" d="M5820.14 1258.07c29.57,-29.57 45.94,-68.93 45.94,-110.9 0,-86.6 -70.5,-156.85 -156.84,-156.85 -86.34,0 -156.84,70.51 -156.84,156.85 0,41.97 16.37,81.33 45.94,110.9l535.47 535.74 -110.9 110.9 -535.47 -535.74c-56.77,-56.78 -91.88,-135.45 -91.88,-222.06l0 0c0,-173.22 140.46,-313.69 313.68,-313.69 173.22,0 313.68,140.47 313.68,313.69 0,86.59 -35.11,165.02 -91.88,221.79l-110.9 -110.63z"/>
   <path class="fil2" d="M5820.14 1258.07l21.38 21.38c35.37,-35.12 54.93,-82.64 54.93,-132.54 0,-103.24 -83.96,-187.21 -187.21,-187.21 -103.24,0 -186.93,83.95 -187.21,187.21l0 0c0,49.9 19.54,97.16 54.93,132.54l514.08 514.36 -67.86 67.86 -514.34 -514.09c-51.49,-51.48 -82.92,-122.25 -82.92,-200.4 0,-7.92 -3.16,-15.83 -8.97,-21.38 -5.8,-5.54 -13.47,-8.97 -21.38,-8.97 -7.92,0 -15.83,3.17 -21.38,8.97 -5.54,5.81 -8.97,13.47 -8.97,21.38l0 0c0,7.93 3.17,15.84 8.97,21.38 5.81,5.55 13.47,8.97 21.38,8.97 7.93,0 15.84,-3.16 21.38,-8.97 5.55,-5.8 8.97,-13.47 8.97,-21.38 0.26,-156.58 127,-283.05 283.32,-283.31 156.58,0.26 283.05,126.99 283.32,283.31 0,78.42 -31.69,148.92 -82.92,200.4l21.38 21.39 21.38 -21.39 -110.9 -110.89 -21.36 21.38 21.38 21.38 -21.38 -21.38 -21.38 21.38 110.9 110.9c5.54,5.54 13.47,8.97 21.38,8.97 7.93,0 15.83,-3.17 21.38,-8.97 62.32,-62.32 100.87,-148.4 100.87,-243.44 0,-190.12 -153.94,-344.06 -344.05,-344.06 -190.11,0 -344.05,153.94 -344.05,344.06 0,7.92 3.16,15.83 8.97,21.38 5.81,5.54 13.47,8.97 21.38,8.97 7.93,0 15.84,-3.17 21.38,-8.97 5.55,-5.81 8.97,-13.48 8.97,-21.38l0 0c0,-7.93 -3.16,-15.84 -8.97,-21.39 -5.81,-5.54 -13.47,-8.97 -21.38,-8.97 -7.93,0 -15.84,3.17 -21.38,8.97 -5.55,5.81 -8.97,13.48 -8.97,21.39 0,94.78 38.55,181.12 100.87,243.44l535.73 535.46c11.89,11.89 31.15,11.89 43.04,0l110.9 -110.9c5.54,-5.54 8.97,-13.47 8.97,-21.38 0,-7.92 -3.17,-15.83 -8.97,-21.38l-535.99 -535.46c-24.03,-24.03 -36.98,-55.45 -37.24,-89.51l0 0c0,-69.7 56.77,-126.47 126.48,-126.47 69.7,0 126.47,56.77 126.47,126.47 0,34.07 -12.93,65.48 -36.97,89.51 -5.8,5.8 -8.97,13.47 -8.97,21.38 0,8.18 3.17,15.83 8.97,21.38l21.66 -21.38z"/>
   <path class="fil2" d="M6355.61 2015.59c29.56,29.57 68.92,45.94 110.9,45.94 86.33,0 156.84,-70.5 156.84,-156.84 0,-86.6 -70.24,-156.84 -156.58,-156.84l0 0c-41.98,0 -81.34,16.38 -110.9,45.94l-535.73 535.49 -110.9 -110.9 535.73 -535.47c56.77,-56.77 135.18,-91.88 221.8,-91.88l0 0c173.21,0 313.68,140.46 313.68,313.94 0,173.48 -140.47,313.68 -313.68,313.68 -86.6,0 -165.03,-35.11 -221.8,-91.88l110.64 -111.18z"/>
   <path class="fil2" d="M6355.61 2015.59l-21.38 21.38c35.11,35.38 82.63,54.93 132.54,54.93 103.23,0 187.21,-83.96 187.21,-187.21 0,-103.23 -83.7,-187.21 -186.94,-187.21 -8.18,0 -15.83,3.17 -21.38,8.97 -5.8,5.81 -8.97,13.48 -8.97,21.39l0 0 30.34 0.03 0 -30.37c-49.91,0 -97.17,19.54 -132.54,54.65l0 0 -514.35 514.35 -67.86 -67.86 514.08 -514.35c51.49,-51.23 121.99,-82.91 200.41,-82.91 13.99,0 26.4,-9.77 29.56,-23.5 3.17,-13.74 -3.42,-27.99 -16.11,-34.07l0 0 -13.47 27.2 0 30.37c156.58,0.26 283.06,126.99 283.32,283.57 -0.26,156.58 -127,283.06 -283.32,283.32 -78.41,0 -148.92,-31.69 -200.4,-82.91l-21.38 21.38 21.38 21.38 110.9 -110.9 -21.64 -21.63 -21.38 21.38 21.38 -21.38 -21.38 -21.38 -110.9 110.9c-11.89,11.89 -11.89,31.15 0,43.04 62.05,62.32 148.39,100.87 243.44,100.87 190.11,0 344.05,-153.94 344.05,-344.05 0,-190.11 -153.94,-344.31 -344.05,-344.31 -14,0 -26.41,9.77 -29.57,23.5 -3.17,13.73 3.42,27.99 16.11,34.07l0 0 13.47 -27.2 0 -30.37c-95.04,0 -181.12,38.55 -243.44,100.87l-535.48 535.47c-5.55,5.54 -8.97,13.47 -8.97,21.38 0,7.92 3.16,15.83 8.97,21.38l110.9 110.9c11.89,11.89 31.15,11.89 43.04,0l535.46 -535.47 0 0c24.29,-24.02 55.45,-36.97 89.51,-36.97 7.92,0 15.83,-3.17 21.38,-8.97 5.54,-5.81 8.97,-13.47 8.97,-21.38l0 0 -30.35 0 0 30.36c69.7,0 126.47,56.78 126.21,126.48 0,69.7 -56.77,126.47 -126.47,126.47 -34.07,0 -65.48,-12.93 -89.51,-36.97 -5.8,-5.8 -13.47,-8.97 -21.38,-8.97 -8.18,0 -15.83,3.17 -21.38,8.97l21.37 21.38z"/>
   <path class="fil2" d="M5062.61 1793.81c-29.83,-29.57 -68.92,-45.94 -110.9,-45.94 -86.6,0 -156.84,70.5 -156.84,156.84 0,86.6 70.24,156.84 156.84,157.1l0 0c41.98,0 81.33,-16.37 110.9,-45.94l535.73 -535.74 110.9 110.9 -535.73 535.46c-56.77,56.77 -135.44,91.89 -222.06,91.89l0 0c-173.48,0 -313.68,-140.47 -313.68,-313.95 0,-173.21 140.47,-313.68 313.68,-313.68 86.6,0 165.03,35.11 221.8,91.88l-110.64 111.18z"/>
   <path class="fil2" d="M5062.61 1793.81l21.38 -21.38c-35.11,-35.37 -82.63,-54.93 -132.54,-54.93 -103.23,0 -187.21,83.96 -187.21,187.21 0,103.23 83.7,187.21 187.21,187.47 8.19,0 15.84,-3.16 21.38,-8.97 5.81,-5.81 8.97,-13.47 8.97,-21.38l0 0 -30.35 -0.03 0 30.36c49.91,0 97.17,-19.54 132.54,-54.93l0 0 514.35 -514.33 67.86 67.87 -514.09 514.34 0 0c-51.48,51.23 -122.25,82.92 -200.4,83.18 -13.47,0 -25.08,8.71 -29.04,21.38 -3.97,12.67 1.06,26.66 12.15,34.07l0 0 16.89 -25.09 0 -30.36c-156.58,-0.54 -283.05,-127.02 -283.31,-283.6 0.26,-156.58 126.73,-283.05 283.31,-283.31 78.42,0 148.92,31.68 200.4,82.91l21.39 -21.38 -21.39 -21.38 -110.89 110.9 21.39 21.38 21.38 -21.38 -21.38 21.38 21.38 21.38 110.9 -110.9c5.81,-5.81 8.97,-13.47 8.97,-21.38 0,-8.19 -3.16,-15.84 -8.97,-21.38 -62.31,-62.06 -148.39,-100.87 -243.44,-100.59 -190.11,0 -344.05,153.94 -344.05,344.05 0,190.11 153.94,344.31 344.05,344.31 13.47,0 25.08,-8.71 29.05,-21.38 3.96,-12.67 -1.06,-26.67 -12.15,-34.07l0 0 -16.9 25.08 0 30.37c94.79,0 181.13,-38.56 243.44,-100.87l0 0 535.73 -535.47c11.89,-11.89 11.89,-31.15 0,-43.04l-110.9 -110.9c-11.89,-11.89 -31.15,-11.89 -43.04,0l-535.46 535.19 0 0c-24.29,24.03 -55.45,36.97 -89.51,37.24 -7.92,0 -15.83,3.16 -21.38,8.96 -5.54,5.81 -8.97,13.48 -8.97,21.39l0 0 30.35 0 0 -30.37c-69.7,0 -126.47,-56.77 -126.47,-126.74 0,-69.7 56.77,-126.21 126.47,-126.47 34.07,0 65.22,12.93 89.51,36.97 11.88,11.89 31.14,11.89 43.03,0l-21.64 -21.38z"/>
   <path class="fil2" d="M6466.77 1394.85l-30.37 0 0 0 30.37 0 0 -30.37c-130.18,0 -253.47,46.2 -351.18,130.18l19.8 22.98 21.38 -21.38 -38.82 -38.82 -21.38 21.38 22.98 19.8c83.96,-97.69 129.9,-221.26 129.9,-351.44l0 0c0.02,-297.85 -242.12,-540.23 -540.21,-540.23 -298.09,0 -540.23,242.38 -540.23,540.23 0,130.18 46.46,253.47 130.18,351.18l22.98 -19.8 -21.38 -21.38 -38.82 38.81 21.38 21.39 19.8 -22.98c-97.69,-83.96 -221.52,-129.9 -351.7,-129.9 -297.57,-0.02 -539.97,242.36 -539.97,540.19 0,298.1 242.38,540.23 540.23,540.49 7.93,0 15.84,-3.16 21.38,-8.97 5.55,-5.8 8.97,-13.47 8.97,-21.38l0 0 -30.35 -0.01 0 30.36c130.18,0 253.47,-46.2 351.18,-130.17l-19.8 -22.98 -21.38 21.38 38.81 38.81 21.39 -21.38 -22.98 -19.8c-83.96,97.69 -129.9,221.53 -129.9,351.44 0,297.83 242.38,540.23 540.23,540.23 298.09,0 540.22,-242.38 540.22,-540.23 0,-7.92 -3.16,-15.83 -8.97,-21.38 -5.8,-5.54 -13.47,-8.97 -21.38,-8.97l-0.03 0 0 30.37 30.37 0c0,-130.18 -46.2,-253.47 -130.18,-351.18l-22.98 19.8 21.38 21.38 38.82 -38.81 -21.38 -21.39 -19.8 22.98c97.69,84.24 221.52,129.9 351.7,129.9l0 0c297.83,0 540.23,-242.38 540.23,-540.23 0,-298.09 -242.38,-540.22 -540.23,-540.49 -7.93,0 -15.84,3.17 -21.38,8.97 -5.55,5.81 -8.97,13.48 -8.97,21.39l30.09 0.03 0 30.36c264.3,0.53 478.95,215.18 479.49,479.48 -0.52,264.3 -215.19,478.98 -479.49,479.5l0 0c-115.91,0 -224.97,-40.66 -312.1,-115.39 -12.15,-10.29 -30.11,-9.77 -41.2,1.59l-38.82 38.81c-11.09,11.09 -11.88,29.31 -1.58,41.2 74.73,87.13 115.65,195.91 115.65,311.56 0,7.93 3.16,15.84 8.97,21.38 5.8,5.55 13.47,8.97 21.38,8.97l0.03 0.02 0 -30.37 -30.37 0c-0.52,264.58 -215.19,479.23 -479.49,479.76 -264.3,-0.53 -479.23,-215.2 -479.5,-479.5 0,-115.91 40.66,-224.96 115.39,-312.1 10.29,-12.15 9.77,-30.11 -1.58,-41.2l-38.82 -38.81c-11.09,-11.09 -29.3,-11.89 -41.19,-1.58 -87.14,74.72 -195.92,115.64 -311.57,115.64 -7.92,0 -15.83,3.17 -21.38,8.97 -5.54,5.81 -8.97,13.47 -8.97,21.38l0 0 30.35 0.03 0 -30.36c-264.56,-0.52 -479.23,-215.18 -479.75,-479.5 0.52,-264.3 215.19,-478.97 479.49,-479.49 115.91,0 224.97,40.66 312.1,115.38 12.15,10.29 30.11,9.51 41.2,-1.58l38.81 -38.81c11.09,-11.09 11.89,-29.31 1.59,-41.2 -74.73,-86.86 -115.65,-195.92 -115.65,-311.56 0.51,-264.56 215.18,-479.22 479.48,-479.74 264.3,0.52 478.97,215.19 479.49,479.49l0 0c0,115.91 -40.65,225.23 -115.12,312.1 -10.29,12.15 -9.77,30.11 1.58,41.2l38.82 38.81c11.09,11.09 29.3,11.89 41.19,1.59 87.14,-74.73 195.92,-115.65 311.57,-115.65 7.92,0 15.83,-3.16 21.38,-8.97 5.54,-5.8 8.97,-13.47 8.97,-21.38l0 0 -30.35 -0.03 0 30.36 0 -30.36z"/>
   <path class="fil2" d="M5598.34 2551.06c-29.57,29.57 -45.94,68.92 -45.94,110.9 0,86.34 70.5,156.84 156.84,156.84 86.34,0 156.84,-70.24 156.84,-156.84l0 0c0,-41.98 -16.37,-81.33 -45.94,-110.9l-535.74 -535.47 110.9 -110.9 535.74 535.75c56.77,56.77 91.88,135.18 91.88,221.8l0 0c0,173.21 -140.46,313.68 -313.68,313.68 -173.48,0 -313.68,-140.47 -313.68,-313.68 0,-86.6 35.11,-165.03 91.88,-221.8l110.9 110.62z"/>
   <path class="fil2" d="M5598.34 2551.06l-21.38 -21.38c-35.11,35.11 -54.93,82.64 -54.65,132.28 0,103.23 83.96,187.21 187.21,187.21 103.23,0 187.21,-83.7 187.21,-187.21 0,-8.19 -3.17,-15.84 -8.97,-21.38 -5.81,-5.81 -13.48,-8.97 -21.39,-8.97l-0.03 -0.02 0 30.37 30.37 0c0,-49.91 -19.54,-97.17 -54.65,-132.54l0 0 -514.63 -513.83 67.87 -68.12 514.08 514.35c51.49,51.48 83.18,121.99 83.18,200.4 0,14.25 9.76,26.4 23.5,29.57 13.73,3.16 27.98,-3.7 34.07,-16.38l0 0 -27.47 -13.19 -30.37 0c-0.26,156.58 -126.99,283.06 -283.31,283.32 -156.58,-0.26 -283.06,-127 -283.32,-283.32 0,-78.41 31.69,-148.92 82.92,-200.4l-21.38 -21.38 -21.39 21.38 110.9 110.9 21.63 -21.66 -21.38 -21.38 21.38 21.38 21.38 -21.38 -110.9 -110.9c-11.89,-11.89 -31.15,-11.89 -43.04,0 -62.31,62.05 -100.87,148.39 -100.87,243.44 0,190.11 153.94,344.05 344.05,344.05 190.11,0 344.05,-153.94 344.05,-344.05 0,-14.25 -9.77,-26.4 -23.5,-29.57 -13.73,-3.16 -27.98,3.7 -34.07,16.38l0 0 27.47 13.19 30.36 0c0,-95.05 -38.55,-181.13 -100.87,-243.44l-535.45 -535.73c-5.8,-5.8 -13.47,-8.97 -21.38,-8.97 -8.18,0 -15.83,3.17 -21.38,8.97l-110.9 110.9c-11.89,11.89 -11.89,31.15 0,43.04l535.45 535.73 0 0c24.03,24.28 36.97,55.71 37.24,89.5 0,7.93 3.16,15.84 8.96,21.38 5.81,5.55 13.48,8.97 21.39,8.97l0.01 0.02 0 -30.37 -30.36 0c0,69.7 -56.78,126.21 -126.48,126.47 -69.7,0 -126.47,-56.77 -126.47,-126.47 0,-34.07 12.93,-65.48 36.97,-89.5 11.89,-11.89 11.89,-31.15 0,-43.04l-21.66 21.38z"/>
   <path class="fil2" d="M5708.98 2218.38l21.38 -21.38 -292.29 -292.31 270.91 -270.64 270.9 270.64 -292.3 292.31 21.4 21.38 21.38 -21.38 -21.38 21.38 21.38 21.38 313.68 -313.69c5.55,-5.54 8.97,-13.47 8.97,-21.38 0,-7.92 -3.16,-15.83 -8.97,-21.38l-313.68 -313.94c-11.89,-11.89 -31.15,-11.89 -43.04,0l-313.67 313.68c-11.89,11.89 -11.89,31.15 0,43.04l313.93 313.94c5.55,5.55 13.47,8.97 21.38,8.97 7.93,0 15.84,-3.16 21.38,-8.97l-21.36 -21.65z"/>
   <path class="fil2" d="M1221.26 4067.29l145.96 223.31c7.1,11.6 7.42,23.2 0.97,34.8 -2.58,5.15 -6.6,9.35 -12.08,12.57 -5.48,3.22 -11.12,4.83 -16.91,4.83l-87.97 0c-5.81,0 -11.28,-1.45 -16.44,-4.35 -5.16,-2.9 -9.02,-6.6 -11.6,-11.12l-146.93 -232.97 -172.07 0 0 214.61c0,9.02 -3.39,16.91 -10.16,23.69 -6.76,6.76 -14.66,10.14 -23.68,10.14l-73.47 0c-9.02,0 -16.91,-3.38 -23.69,-10.14 -6.76,-6.78 -10.14,-14.67 -10.14,-23.69l0 -318.04c0,-9.03 3.38,-16.92 10.14,-23.68 6.78,-6.78 14.67,-10.16 23.69,-10.16l297.74 0c56.71,0 94.41,-16.11 113.1,-48.33 6.44,-10.31 9.67,-25.13 9.67,-44.47 0,-30.29 -9.99,-54.13 -29.97,-71.53 -20.62,-18.69 -50.27,-28.04 -88.93,-28.04l-301.61 0c-9.02,0 -16.91,-3.38 -23.69,-10.15 -6.76,-6.77 -10.14,-14.66 -10.14,-23.68l0 -69.61c0,-9.01 3.38,-16.91 10.14,-23.68 6.78,-6.77 14.67,-10.15 23.69,-10.15l310.31 0c75.4,0 135.65,21.26 180.77,63.81 47.05,42.52 70.57,100.21 70.57,173.03 0,47.05 -10.32,87.17 -30.94,120.36 -20.62,33.19 -50.59,58.48 -89.9,75.88l-16.43 6.76zm370.24 -152.73c9.67,0 17.72,3.38 24.16,10.15 6.45,6.77 9.67,14.98 9.67,24.65l0 361.55c0,9.02 -3.22,16.9 -9.67,23.68 -6.44,6.76 -14.49,10.14 -24.16,10.14l-73.47 0c-9.03,0 -16.92,-3.38 -23.68,-10.14 -6.77,-6.78 -10.15,-14.66 -10.15,-23.69l0 -361.55c0,-9.66 3.38,-17.87 10.15,-24.64 6.76,-6.77 14.65,-10.15 23.68,-10.15l73.47 0zm0 -287.11c9.67,0 17.72,3.38 24.16,10.15 6.45,6.77 9.67,14.67 9.67,23.68l0 178.84c0,9.67 -3.22,17.88 -9.67,24.66 -6.44,6.76 -14.49,10.14 -24.16,10.14l-73.47 0c-9.03,0 -16.92,-3.38 -23.68,-10.14 -6.77,-6.78 -10.15,-14.99 -10.15,-24.66l0 -178.84c0,-9.01 3.38,-16.91 10.15,-23.68 6.76,-6.77 14.65,-10.15 23.68,-10.15l73.47 0zm663.15 358.65c27.71,17.4 48.82,38.66 63.32,63.79 14.5,25.14 21.75,53.17 21.75,84.1 0,72.83 -27.72,128.58 -83.14,167.25 -37.38,27.06 -87.97,44.14 -151.76,51.23l-3.87 0c-9.03,0 -16.44,-2.9 -22.24,-8.7 -7.73,-7.09 -11.6,-15.47 -11.6,-25.13l0 -69.6c0,-8.39 2.91,-15.79 8.7,-22.24 5.8,-6.45 12.89,-10.31 21.27,-11.6 30.29,-3.22 53.81,-10.32 70.56,-21.26 12.9,-7.74 21.59,-17.73 26.11,-29.97 2.58,-7.09 3.86,-16.12 3.86,-27.08 0,-7.08 -1.28,-13.2 -3.86,-18.36 -2.59,-5.16 -7.1,-9.99 -13.54,-14.51 -18.68,-12.88 -42.86,-23.84 -72.5,-32.85l-15.46 -4.83c-32.23,-9.03 -61.88,-16.45 -88.94,-22.25 -5.81,-1.28 -15.14,-3.54 -28.04,-6.76l-10.64 -2.9c-23.19,-5.8 -47.68,-13.85 -73.46,-24.17 -38.02,-16.11 -69.28,-36.41 -93.77,-60.9 -28.36,-28.36 -42.54,-65.73 -42.54,-112.14 0,-63.8 24.5,-115.67 73.48,-155.64 33.51,-28.35 80.55,-46.39 141.14,-54.13 10.3,-1.29 19.17,1.61 26.57,8.71 7.42,7.08 11.13,15.46 11.13,25.12l0 69.61c0,8.38 -2.58,15.79 -7.74,22.23 -5.16,6.45 -11.76,10.15 -19.82,11.12 -8.05,0.96 -16.27,2.74 -24.65,5.31 -18.68,7.1 -31.9,14.02 -39.63,20.79 -7.74,6.77 -13.21,13.69 -16.43,20.79 -3.22,10.94 -4.84,21.26 -4.84,30.92 0,5.17 2.91,10.64 8.7,16.44 9.02,9.02 22.23,17.07 39.63,24.17 7.74,3.22 21.27,8.05 40.61,14.5l120.84 29.97 5.8 1.94c30.29,8.37 52.2,14.81 65.73,19.33 30.28,10.3 56.71,22.87 79.27,37.7zm-161.44 -218.48c-7.74,-1.93 -14.02,-5.96 -18.85,-12.08 -4.84,-6.13 -7.25,-13.37 -7.25,-21.76l0 -70.56c0,-10.31 4.19,-19.01 12.57,-26.1 3.22,-3.22 7.4,-5.32 12.57,-6.29 5.15,-0.96 9.98,-1.13 14.5,-0.48 56.71,9.03 102.78,28.36 138.24,58.01 48.32,39.95 74.11,90.86 77.33,152.73 0.64,9.02 -2.42,17.23 -9.19,24.65 -6.77,7.41 -14.98,11.11 -24.65,11.11l-75.4 0c-8.38,0 -15.79,-2.9 -22.24,-8.69 -6.44,-5.8 -9.98,-12.89 -10.63,-21.27 -2.57,-16.75 -8.06,-30.61 -16.43,-41.57 -13.54,-16.11 -34.48,-28.35 -62.84,-36.73 -1.93,0 -3.22,-0.33 -3.86,-0.97l-3.87 0zm-113.11 443.72c7.74,1.28 14.18,5.15 19.34,11.59 5.16,6.45 7.74,13.54 7.74,21.28l0 71.53c0,10.3 -3.87,19.01 -11.61,26.09 -6.44,5.16 -13.86,7.74 -22.23,7.74l-4.83 0c-59.94,-9.02 -109.24,-28.68 -147.91,-58.97 -50.27,-39.95 -78.62,-95.7 -85.07,-167.23 -1.29,-10.32 1.61,-19.18 8.71,-26.59 7.08,-7.41 15.47,-11.12 25.13,-11.12l76.36 0c9.03,0 16.77,3.07 23.21,9.19 6.44,6.12 9.99,13.69 10.64,22.71 1.93,32.23 17.72,57.04 47.36,74.44 13.53,7.73 31.25,14.17 53.16,19.34zm983.13 -5.81c9.66,0 17.73,3.38 24.17,10.15 6.44,6.77 9.67,14.99 9.67,24.65l0 70.57c0,9.03 -3.23,16.91 -9.67,23.69 -6.44,6.76 -14.51,10.14 -24.17,10.14l-477.54 0c-9.02,0 -16.93,-3.38 -23.69,-10.14 -6.76,-6.78 -10.15,-14.66 -10.15,-23.69l0 -70.57c0,-9.66 3.39,-17.88 10.15,-24.65 6.76,-6.77 14.67,-10.15 23.68,-10.15l477.54 0 0.01 0zm-477.55 -149.83c-9.01,0 -16.92,-3.38 -23.68,-10.16 -6.76,-6.76 -10.15,-14.66 -10.15,-23.68l0 -72.5c0,-9.02 3.39,-16.91 10.15,-23.69 6.76,-6.76 14.67,-10.14 23.68,-10.14l434.05 0c9.67,0 17.88,3.38 24.65,10.14 6.77,6.78 10.15,14.67 10.15,23.69l0 72.5c0,9.02 -3.38,16.92 -10.15,23.68 -6.77,6.78 -14.98,10.16 -24.65,10.16l-434.05 0zm477.55 -428.25c9.66,0 17.73,3.38 24.17,10.15 6.44,6.77 9.67,14.67 9.67,23.68l0 70.57c0,9.67 -3.23,17.89 -9.67,24.66 -6.44,6.76 -14.51,10.14 -24.17,10.14l-477.54 0c-9.02,0 -16.93,-3.38 -23.69,-10.14 -6.76,-6.77 -10.15,-14.99 -10.15,-24.66l0 -70.57c0,-9.01 3.39,-16.91 10.15,-23.68 6.76,-6.77 14.67,-10.15 23.68,-10.15l477.54 0 0.01 0zm634.15 7.74c7.73,6.44 11.6,15.13 11.6,26.09l0 72.5c0,8.39 -2.42,15.63 -7.25,21.76 -4.83,6.12 -11.44,10.15 -19.82,12.08 -41.24,8.38 -76.36,28.04 -105.37,58.97 -39.31,41.25 -58.96,94.9 -58.96,160.96 0,66.06 19.65,120.03 58.96,161.91 29.01,30.3 64.13,49.63 105.37,58 8.38,1.93 14.99,5.97 19.82,12.09 4.83,6.12 7.25,13.37 7.25,21.75l0 72.5c0,10.31 -3.87,19.02 -11.6,26.1 -7.09,5.15 -14.5,7.73 -22.23,7.73l-5.8 0c-74.76,-12.24 -138.89,-46.07 -192.38,-101.49 -67.03,-68.96 -100.53,-154.84 -100.53,-257.63 0,-102.79 33.51,-189.31 100.53,-259.56 52.2,-54.13 116.33,-87.64 192.37,-100.53 10.32,-1.94 19.65,0.32 28.04,6.77zm303.53 93.76c67.03,70.25 100.54,156.77 100.54,259.56 0,102.79 -33.51,188.67 -100.54,257.63 -53.49,55.42 -117.6,89.25 -192.37,101.49l-5.79 0c-7.73,0 -15.15,-2.58 -22.23,-7.73 -7.74,-7.08 -11.61,-15.79 -11.61,-26.1l0 -72.5c0,-8.38 2.42,-15.63 7.25,-21.75 4.84,-6.12 11.44,-10.15 19.82,-12.09 41.25,-8.37 76.37,-27.7 105.37,-58 39.31,-41.88 58.97,-95.85 58.97,-161.91 0,-66.06 -19.66,-119.71 -58.97,-160.96 -29,-30.93 -64.12,-50.59 -105.37,-58.97 -8.38,-1.93 -14.98,-5.96 -19.82,-12.08 -4.83,-6.13 -7.25,-13.37 -7.25,-21.76l0 -72.5c0,-10.96 4.03,-19.65 12.09,-26.09 8.05,-6.45 17.24,-8.71 27.54,-6.77 76.06,12.89 140.17,46.4 192.37,100.53zm675.72 194.31c9.67,0 17.89,3.38 24.65,10.15 6.77,6.76 10.15,14.99 10.15,24.65l0 71.53c0,9.03 -3.38,16.92 -10.15,23.69 -6.76,6.77 -14.98,10.15 -24.65,10.15l-318.04 0 0 247.47c0,9.03 -3.22,16.91 -9.67,23.69 -6.44,6.76 -14.5,10.14 -24.16,10.14l-73.47 0c-9.02,0 -16.91,-3.38 -23.69,-10.14 -6.76,-6.78 -10.14,-14.66 -10.14,-23.69l0 -352.84c0,-9.66 3.38,-17.89 10.14,-24.65 6.78,-6.77 14.67,-10.15 23.69,-10.15l425.34 0zm43.51 -295.81c9.02,0 16.92,3.38 23.68,10.15 6.76,6.77 10.14,14.67 10.14,23.68l0 70.57c0,9.67 -3.38,17.89 -10.14,24.66 -6.76,6.76 -14.66,10.14 -23.68,10.14l-468.85 0c-9.02,0 -16.91,-3.38 -23.69,-10.14 -6.76,-6.77 -10.14,-14.99 -10.14,-24.66l0 -70.57c0,-9.01 3.38,-16.91 10.14,-23.68 6.78,-6.77 14.67,-10.15 23.69,-10.15l468.85 0zm974.41 669.92c4.51,10.31 3.4,20.78 -3.38,31.41 -6.76,10.64 -15.95,15.95 -27.54,15.95l-643.82 0c-5.81,0 -11.28,-1.45 -16.43,-4.35 -5.17,-2.89 -9.03,-6.6 -11.61,-11.12 -7.08,-10.3 -8.05,-20.94 -2.9,-31.89l29.98 -70.57c2.57,-6.45 6.76,-11.6 12.55,-15.46 5.81,-3.88 11.93,-5.81 18.37,-5.81l450.48 0 -158.54 -378.95 -129.53 309.35c-2.57,6.45 -6.61,11.44 -12.08,14.98 -5.48,3.54 -11.77,5.32 -18.85,5.32l-81.21 0c-12.25,0 -21.91,-5.16 -28.99,-15.46 -2.58,-4.52 -4.2,-9.67 -4.85,-15.47 -0.64,-5.81 0,-11.28 1.94,-16.43l196.23 -460.14c2.59,-6.46 6.61,-11.61 12.09,-15.47 5.49,-3.88 11.76,-5.81 18.85,-5.81l92.8 0c7.09,0 13.38,1.93 18.86,5.81 5.47,3.86 9.5,9.01 12.09,15.45l275.49 648.66zm678.62 -669.92c9.03,0 16.92,3.38 23.69,10.15 6.76,6.77 10.14,14.67 10.14,23.68l0 647.69c0,9.02 -3.38,16.91 -10.14,23.69 -6.77,6.76 -14.66,10.14 -23.69,10.14l-85.07 0c-11.59,0 -20.94,-4.51 -28.03,-13.54l-472.71 -647.68c-3.86,-5.15 -6.13,-10.95 -6.77,-17.4 -0.65,-6.44 0.48,-12.56 3.38,-18.36 2.91,-5.8 7.1,-10.31 12.57,-13.54 5.47,-3.22 11.44,-4.83 17.88,-4.83l85.07 0c5.16,0 10.32,1.13 15.47,3.38 5.15,2.27 9.02,5.65 11.61,10.16l339.3 461.1 0 -440.81c0,-9.01 3.22,-16.91 9.67,-23.68 6.44,-6.77 14.49,-10.15 24.16,-10.15l73.47 0zm-485.28 468.85c9.03,0 16.92,3.22 23.69,9.67 6.76,6.44 10.14,14.49 10.14,24.16l0 178.84c0,9.02 -3.38,16.91 -10.14,23.69 -6.77,6.76 -14.66,10.14 -23.69,10.14l-73.47 0c-9.01,0 -16.91,-3.38 -23.68,-10.14 -6.77,-6.78 -10.15,-14.67 -10.15,-23.69l0 -178.84c0,-9.67 3.38,-17.72 10.15,-24.16 6.77,-6.45 14.67,-9.67 23.68,-9.67l73.47 0zm1032.43 -330.61c-8.38,-1.29 -15.3,-5.15 -20.79,-11.61 -5.47,-6.44 -8.21,-13.84 -8.21,-22.23l0 -70.57c0,-10.96 3.86,-19.65 11.6,-26.09 7.73,-6.45 16.75,-9.03 27.06,-7.74 55.43,9.03 104.73,28.68 147.91,58.98 56.07,40.59 95.7,94.4 118.9,161.43 3.86,10.95 2.58,21.26 -3.87,30.94 -6.44,9.66 -15.79,14.49 -28.02,14.49l-77.33 0c-7.1,0 -13.55,-1.77 -19.35,-5.32 -5.79,-3.54 -9.99,-8.53 -12.57,-14.98 -14.18,-33.51 -35.77,-60.25 -64.76,-80.23 -22.56,-14.18 -46.08,-23.21 -70.57,-27.07zm244.58 320.93c12.23,0 21.58,4.85 28.02,14.51 6.45,9.67 7.74,19.97 3.87,30.93 -23.2,67.03 -62.83,120.84 -118.9,161.44 -43.18,30.29 -92.48,49.94 -147.91,58.97l-4.83 0c-9.02,0 -16.43,-2.9 -22.23,-8.7 -7.74,-5.8 -11.6,-14.18 -11.6,-25.13l0 -70.57c0,-8.38 2.58,-15.79 7.73,-22.24 5.16,-6.44 11.92,-10.31 20.3,-11.6 27.07,-3.86 50.91,-12.89 71.54,-27.07 28.99,-19.97 50.58,-46.71 64.76,-80.23 2.58,-6.45 6.78,-11.44 12.57,-14.98 5.8,-3.54 12.25,-5.33 19.33,-5.33l77.33 0 0.02 0zm-346.08 -447.57c8.37,6.44 12.56,15.15 12.56,26.1l0 75.4c0,7.09 -2.42,13.69 -7.25,19.82 -4.83,6.12 -10.8,10.47 -17.88,13.06 -9.03,1.93 -16.11,4.18 -21.27,6.76 -25.78,11.6 -47.69,27.38 -65.73,47.37 -36.74,41.24 -55.1,95.21 -55.1,161.92 0,66.7 18.36,121 55.1,162.88 22.55,25.79 51.55,43.83 87,54.13 7.08,1.94 13.05,5.97 17.88,12.09 4.83,6.12 7.25,12.73 7.25,19.82l0 76.36c0,10.96 -4.19,19.67 -12.56,26.11 -5.81,5.15 -13.22,7.73 -22.24,7.73l-6.77 0c-68.95,-14.83 -127.27,-48.33 -174.97,-100.53 -61.21,-68.96 -91.83,-154.99 -91.83,-258.11 0,-103.11 30.62,-189.15 91.83,-258.11 47.7,-52.84 106.02,-86.03 174.97,-99.57 10.32,-2.58 19.98,-0.32 29.01,6.77zm596.44 275.51c9.66,0 17.73,3.38 24.17,10.15 6.45,6.77 9.67,14.98 9.67,24.65l0 361.55c0,9.02 -3.22,16.9 -9.67,23.68 -6.44,6.76 -14.51,10.14 -24.17,10.14l-73.46 0c-9.03,0 -16.92,-3.38 -23.69,-10.14 -6.77,-6.78 -10.15,-14.66 -10.15,-23.69l0 -361.55c0,-9.66 3.38,-17.87 10.15,-24.64 6.77,-6.77 14.66,-10.15 23.69,-10.15l73.46 0zm0 -287.11c9.66,0 17.73,3.38 24.17,10.15 6.45,6.77 9.67,14.67 9.67,23.68l0 178.84c0,9.67 -3.22,17.88 -9.67,24.66 -6.44,6.76 -14.51,10.14 -24.17,10.14l-73.46 0c-9.03,0 -16.92,-3.38 -23.69,-10.14 -6.77,-6.78 -10.15,-14.99 -10.15,-24.66l0 -178.84c0,-9.01 3.38,-16.91 10.15,-23.68 6.77,-6.77 14.66,-10.15 23.69,-10.15l73.46 0zm701.82 578.08c9.67,0 17.72,3.38 24.16,10.15 6.45,6.77 9.67,14.99 9.67,24.65l0 70.57c0,9.03 -3.22,16.91 -9.67,23.69 -6.44,6.76 -14.49,10.14 -24.16,10.14l-477.54 0c-9.03,0 -16.92,-3.38 -23.69,-10.14 -6.77,-6.78 -10.15,-14.66 -10.15,-23.69l0 -70.57c0,-9.66 3.38,-17.88 10.15,-24.65 6.77,-6.77 14.66,-10.15 23.69,-10.15l477.54 0zm-477.54 -149.83c-9.03,0 -16.92,-3.38 -23.69,-10.16 -6.77,-6.76 -10.15,-14.66 -10.15,-23.68l0 -72.5c0,-9.02 3.38,-16.91 10.15,-23.69 6.77,-6.76 14.66,-10.14 23.69,-10.14l434.04 0c9.66,0 17.89,3.38 24.65,10.14 6.76,6.78 10.15,14.67 10.15,23.69l0 72.5c0,9.02 -3.39,16.92 -10.15,23.68 -6.76,6.78 -14.99,10.16 -24.65,10.16l-434.04 0zm477.54 -428.25c9.67,0 17.72,3.38 24.16,10.15 6.45,6.77 9.67,14.67 9.67,23.68l0 70.57c0,9.67 -3.22,17.89 -9.67,24.66 -6.44,6.76 -14.49,10.14 -24.16,10.14l-477.54 0c-9.03,0 -16.92,-3.38 -23.69,-10.14 -6.77,-6.77 -10.15,-14.99 -10.15,-24.66l0 -70.57c0,-9.01 3.38,-16.91 10.15,-23.68 6.77,-6.77 14.66,-10.15 23.69,-10.15l477.54 0zm743.39 0c9.01,0 16.91,3.38 23.68,10.15 6.76,6.77 10.15,14.67 10.15,23.68l0 647.69c0,9.02 -3.39,16.91 -10.15,23.69 -6.77,6.76 -14.67,10.14 -23.68,10.14l-85.07 0c-11.61,0 -20.95,-4.51 -28.04,-13.54l-472.71 -647.68c-3.87,-5.15 -6.12,-10.95 -6.76,-17.4 -0.65,-6.44 0.48,-12.56 3.38,-18.36 2.9,-5.8 7.08,-10.31 12.57,-13.54 5.47,-3.22 11.43,-4.83 17.88,-4.83l85.07 0c5.15,0 10.31,1.13 15.46,3.38 5.16,2.27 9.03,5.65 11.6,10.16l339.3 461.1 0 -440.81c0,-9.01 3.24,-16.91 9.68,-23.68 6.44,-6.77 14.5,-10.15 24.16,-10.15l73.47 0 0.01 0zm-485.28 468.85c9.01,0 16.91,3.22 23.68,9.67 6.77,6.44 10.15,14.49 10.15,24.16l0 178.84c0,9.02 -3.38,16.91 -10.15,23.69 -6.77,6.76 -14.67,10.14 -23.68,10.14l-73.47 0c-9.03,0 -16.92,-3.38 -23.69,-10.14 -6.76,-6.78 -10.14,-14.67 -10.14,-23.69l0 -178.84c0,-9.67 3.38,-17.72 10.14,-24.16 6.77,-6.45 14.66,-9.67 23.69,-9.67l73.47 0zm744.34 -468.85c9.67,0 17.88,3.38 24.66,10.15 6.76,6.77 10.14,14.99 10.14,24.65l0 70.57c0,9.67 -3.38,17.88 -10.14,24.66 -6.78,6.76 -14.99,10.14 -24.66,10.14l-99.57 0c-9.02,0 -16.91,-3.38 -23.68,-10.14 -6.76,-6.78 -10.15,-14.99 -10.15,-24.66l0 -70.57c0,-9.66 3.39,-17.88 10.15,-24.65 6.77,-6.77 14.66,-10.15 23.69,-10.15l99.57 0 -0.01 0zm432.11 0c9.03,0 16.92,3.38 23.69,10.15 6.77,6.77 10.15,14.99 10.15,24.65l0 70.57c0,9.67 -3.38,17.88 -10.15,24.66 -6.77,6.76 -14.66,10.14 -23.69,10.14l-194.3 0 0 549.07c0,9.03 -3.38,16.93 -10.14,23.69 -6.78,6.77 -14.67,10.16 -23.7,10.16l-74.43 0c-9.67,0 -17.88,-3.39 -24.65,-10.16 -6.77,-6.76 -10.15,-14.66 -10.15,-23.67l0 -654.45c0,-9.67 3.38,-17.89 10.15,-24.66 6.77,-6.77 14.98,-10.15 24.65,-10.15l302.57 0zm598.38 358.65c27.72,17.4 48.82,38.66 63.32,63.79 14.5,25.14 21.75,53.17 21.75,84.1 0,72.83 -27.7,128.58 -83.13,167.25 -37.37,27.06 -87.96,44.14 -151.77,51.23l-3.86 0c-9.03,0 -16.44,-2.9 -22.25,-8.7 -7.73,-7.09 -11.59,-15.47 -11.59,-25.13l0 -69.6c0,-8.39 2.9,-15.79 8.7,-22.24 5.8,-6.45 12.89,-10.31 21.26,-11.6 30.29,-3.22 53.82,-10.32 70.57,-21.26 12.89,-7.74 21.6,-17.73 26.1,-29.97 2.58,-7.09 3.87,-16.12 3.87,-27.08 0,-7.08 -1.29,-13.2 -3.87,-18.36 -2.57,-5.16 -7.08,-9.99 -13.53,-14.51 -18.69,-12.88 -42.85,-23.84 -72.5,-32.85l-15.47 -4.83c-32.23,-9.03 -61.86,-16.45 -88.93,-22.25 -5.8,-1.28 -15.15,-3.54 -28.04,-6.76l-10.64 -2.9c-23.2,-5.8 -47.68,-13.85 -73.46,-24.17 -38.02,-16.11 -69.28,-36.41 -93.77,-60.9 -28.35,-28.36 -42.53,-65.73 -42.53,-112.14 0,-63.8 24.48,-115.67 73.46,-155.64 33.52,-28.35 80.57,-46.39 141.14,-54.13 10.32,-1.29 19.17,1.61 26.59,8.71 7.41,7.08 11.11,15.46 11.11,25.12l0 69.61c0,8.38 -2.58,15.79 -7.73,22.23 -5.15,6.45 -11.76,10.15 -19.81,11.12 -8.07,0.96 -16.28,2.74 -24.66,5.31 -18.69,7.1 -31.9,14.02 -39.63,20.79 -7.73,6.77 -13.22,13.69 -16.44,20.79 -3.22,10.94 -4.83,21.26 -4.83,30.92 0,5.17 2.9,10.64 8.7,16.44 9.02,9.02 22.24,17.07 39.64,24.17 7.73,3.22 21.26,8.05 40.6,14.5l120.83 29.97 5.8 1.94c30.29,8.37 52.2,14.81 65.74,19.33 30.29,10.3 56.71,22.87 79.26,37.7zm-161.43 -218.48c-7.73,-1.93 -14.02,-5.96 -18.85,-12.08 -4.83,-6.13 -7.25,-13.37 -7.25,-21.76l0 -70.56c0,-10.31 4.19,-19.01 12.56,-26.1 3.22,-3.22 7.42,-5.32 12.57,-6.29 5.15,-0.96 9.99,-1.13 14.5,-0.48 56.71,9.03 102.79,28.36 138.24,58.01 48.34,39.95 74.11,90.86 77.33,152.73 0.64,9.02 -2.42,17.23 -9.18,24.65 -6.77,7.41 -14.98,11.11 -24.66,11.11l-75.39 0c-8.38,0 -15.79,-2.9 -22.23,-8.69 -6.46,-5.8 -10,-12.89 -10.64,-21.27 -2.58,-16.75 -8.05,-30.61 -16.44,-41.57 -13.53,-16.11 -34.48,-28.35 -62.82,-36.73 -1.94,0 -3.24,-0.33 -3.88,-0.97l-3.86 0zm-113.1 443.72c7.73,1.28 14.18,5.15 19.33,11.59 5.15,6.45 7.73,13.54 7.73,21.28l0 71.53c0,10.3 -3.86,19.01 -11.59,26.09 -6.45,5.16 -13.86,7.74 -22.25,7.74l-4.83 0c-59.93,-9.02 -109.23,-28.68 -147.89,-58.97 -50.27,-39.95 -78.63,-95.7 -85.07,-167.23 -1.29,-10.32 1.61,-19.18 8.69,-26.59 7.1,-7.41 15.47,-11.12 25.14,-11.12l76.37 0c9.02,0 16.75,3.07 23.19,9.19 6.45,6.12 10,13.69 10.64,22.71 1.93,32.23 17.72,57.04 47.37,74.44 13.54,7.73 31.25,14.17 53.17,19.34z"/>
  </g>
 </g>
</svg>
